<svg width="17" height="17" viewBox="0 0 17 17" fill="none" xmlns="http://www.w3.org/2000/svg">
<g id="Icon">
<g id="Group 2">
<path id="Vector" d="M10.3796 8.39158C10.2992 8.39158 10.2246 8.36947 10.1583 8.33392V8.33486C10.1583 8.46134 10.1091 8.58013 10.0199 8.66909C9.93072 8.75829 9.81203 8.80745 9.68569 8.80745C9.60412 8.80745 9.52853 8.7848 9.46151 8.7483C9.45475 8.864 9.4085 8.97216 9.32598 9.05476C9.23679 9.14395 9.1181 9.19312 8.99168 9.19312C8.74052 9.19312 8.53655 8.99568 8.52185 8.74822C8.44414 8.79022 8.35628 8.81225 8.26566 8.80643C8.01858 8.79022 7.82509 8.57675 7.82509 8.32031V6.1947L7.58305 6.61402C7.49086 6.77441 7.31829 6.87399 7.13249 6.87399C7.04196 6.87399 6.95252 6.85023 6.87332 6.80484C6.77468 6.74766 6.70412 6.65587 6.67478 6.54605C6.64529 6.43617 6.66055 6.32125 6.71757 6.22276C6.71765 6.22276 7.5095 4.8515 7.55781 4.76727C7.56355 4.75461 7.57991 4.71787 7.59384 4.68657C7.60713 4.65668 7.61854 4.626 7.62947 4.59517C7.86827 3.921 8.45956 3.50222 9.17267 3.50222C10.0987 3.50222 10.8521 4.31915 10.8521 5.32332L10.8522 7.91892C10.8522 8.04524 10.8031 8.16394 10.714 8.25323C10.6248 8.34242 10.5061 8.39159 10.3796 8.39159L10.3796 8.39158ZM9.17268 3.75333C8.55992 3.75333 8.07153 4.09944 7.86616 4.67915C7.85302 4.71596 7.83934 4.75277 7.82337 4.78864C7.77704 4.89255 7.77704 4.89255 7.76398 4.90749L7.76225 4.906C7.6976 5.028 7.50551 5.36064 6.935 6.34844C6.91156 6.38894 6.90535 6.43598 6.91731 6.48097C6.92942 6.52597 6.95845 6.56388 6.99864 6.58708C7.12339 6.65874 7.29424 6.61249 7.36535 6.4886L7.84194 5.66347C7.87041 5.61431 7.92799 5.59016 7.98321 5.60511C8.03811 5.61982 8.07626 5.66961 8.07626 5.7264V8.32038C8.07626 8.44277 8.1686 8.54841 8.28212 8.55588C8.34756 8.55934 8.4086 8.5374 8.45446 8.49162C8.49614 8.44993 8.51911 8.39439 8.51911 8.33501V6.63851C8.51911 6.56913 8.57535 6.51289 8.64473 6.51289C8.71411 6.51289 8.77035 6.56905 8.77035 6.63851L8.77027 8.72062C8.77027 8.8427 8.86961 8.94204 8.99169 8.94204C9.051 8.94204 9.10669 8.91908 9.14846 8.87739C9.19015 8.83562 9.21311 8.77993 9.21311 8.72062V6.6385C9.21311 6.56913 9.26928 6.51289 9.33873 6.51289C9.40811 6.51289 9.46435 6.56905 9.46435 6.6385L9.46427 8.31549V8.335C9.46427 8.457 9.56361 8.55634 9.68577 8.55634C9.745 8.55634 9.80053 8.5333 9.84254 8.49145C9.88423 8.44984 9.90719 8.3943 9.90719 8.33492V6.63842C9.90719 6.56904 9.96336 6.5128 10.0328 6.5128C10.1022 6.5128 10.1584 6.56896 10.1584 6.63842L10.1583 7.91898C10.1583 8.04113 10.2576 8.14048 10.3796 8.14048C10.439 8.14048 10.4945 8.11743 10.5362 8.07582C10.5781 8.03398 10.601 7.97829 10.601 7.91898L10.601 5.32338C10.601 4.45775 9.96029 3.75336 9.17267 3.75336L9.17268 3.75333Z" fill="#103E13"/>
<path id="Vector_2" d="M5.44422 10.1956L7.26704 9.10204C7.48681 8.97005 7.76958 9.02613 7.91054 9.22978C7.96198 9.30396 7.98825 9.3904 7.99234 9.47843C8.0603 9.44295 8.13424 9.42368 8.20952 9.42368C8.24806 9.42368 8.28676 9.42848 8.32499 9.43799C8.44746 9.46859 8.55066 9.54513 8.61556 9.65336C8.68053 9.76175 8.69949 9.88877 8.66889 10.0111C8.64065 10.1243 8.57182 10.2196 8.47609 10.2849C8.54303 10.3244 8.60077 10.3783 8.64183 10.4469C8.7068 10.5553 8.72576 10.6822 8.69524 10.8047C8.66464 10.927 8.5881 11.0302 8.47972 11.0953L8.47909 11.0957C8.54484 11.1351 8.60156 11.1884 8.64215 11.256C8.7072 11.3644 8.72615 11.4914 8.69555 11.6139C8.66488 11.7362 8.58834 11.8394 8.48011 11.9044L6.25442 13.2397C5.83903 13.4888 5.35881 13.5747 4.90244 13.4815C4.44198 13.3875 4.06063 13.1228 3.82876 12.7362C3.46181 12.1247 3.51681 11.4021 3.972 10.8506C3.99284 10.8255 4.01337 10.7998 4.03201 10.7732C4.05176 10.7452 4.0748 10.7121 4.08267 10.7008C4.12979 10.6166 4.8986 9.23145 4.89852 9.23161C4.97616 9.09153 5.12167 9.01223 5.27175 9.01231C5.34176 9.01231 5.41279 9.02953 5.47831 9.06588C5.55744 9.11008 5.62391 9.1745 5.6704 9.25214C5.76597 9.41142 5.76935 9.61075 5.67936 9.77206L5.44422 10.1956ZM5.45515 9.38127C5.43077 9.34061 5.39726 9.3082 5.35628 9.28523C5.27156 9.23835 5.1649 9.26887 5.11827 9.35327C4.56814 10.3444 4.3806 10.6821 4.30823 10.8023L4.30989 10.8027C4.30383 10.8228 4.30383 10.8228 4.2376 10.9175C4.2151 10.9495 4.19064 10.9802 4.16571 11.0105C3.77429 11.4848 3.72884 12.0815 4.04402 12.607C4.23925 12.9325 4.56191 13.1557 4.9526 13.2354C5.34754 13.3158 5.7638 13.241 6.12509 13.0243L8.35098 11.689C8.40179 11.6585 8.43766 11.6101 8.45198 11.5528C8.46629 11.4955 8.4574 11.436 8.42688 11.3852C8.36411 11.2806 8.2278 11.2462 8.12318 11.3092L7.02512 11.968C6.96566 12.0037 6.88841 11.9845 6.85278 11.9249C6.81707 11.8655 6.83634 11.7883 6.89581 11.7526L7.99395 11.0938L8.35059 10.8799C8.4014 10.8494 8.43735 10.801 8.45166 10.7438C8.46598 10.6865 8.45709 10.6268 8.42657 10.5761C8.36372 10.4714 8.22741 10.4374 8.12287 10.5001L6.66809 11.3728C6.60847 11.4086 6.53146 11.3893 6.49575 11.3298C6.46004 11.2703 6.47939 11.1932 6.53878 11.1575L8.32424 10.0864C8.37505 10.0559 8.41092 10.0076 8.42524 9.95024C8.43955 9.89297 8.43066 9.83343 8.40022 9.78262C8.36978 9.73188 8.32141 9.69601 8.26407 9.6817C8.20641 9.66738 8.1471 9.67627 8.09645 9.70663L7.76592 9.90493C7.76585 9.90493 7.76585 9.90501 7.76577 9.90501H7.76569L6.31099 10.7777C6.25136 10.8136 6.17428 10.7942 6.13865 10.7347C6.10294 10.6752 6.12229 10.5981 6.18167 10.5624L7.63645 9.68964C7.68727 9.65912 7.72321 9.61075 7.73753 9.55356C7.75326 9.4908 7.7413 9.42661 7.70402 9.37281C7.63936 9.27928 7.50108 9.25443 7.39623 9.31743L5.17196 10.6518C5.12327 10.6809 5.06089 10.6738 5.02007 10.6344C4.97916 10.5949 4.96996 10.5329 4.99749 10.4832L5.46001 9.64992C5.50641 9.56663 5.5046 9.46374 5.45513 9.3813L5.45515 9.38127Z" fill="#103E13"/>
<path id="Vector_3" d="M14.1545 12.7362C13.9227 13.1228 13.5414 13.3874 13.0809 13.4815C12.6244 13.5745 12.1444 13.4887 11.7289 13.2396L9.50301 11.9043C9.3947 11.8393 9.31808 11.7361 9.28741 11.6136C9.25697 11.4913 9.276 11.3642 9.34089 11.256C9.3814 11.1883 9.43819 11.135 9.50403 11.0956L9.5034 11.0952C9.39509 11.0302 9.31848 10.927 9.28796 10.8046C9.25729 10.6823 9.27632 10.5551 9.34129 10.4468C9.38314 10.3771 9.44048 10.3227 9.50592 10.2841C9.4109 10.2187 9.34247 10.1238 9.31431 10.0111C9.28364 9.88868 9.30267 9.76163 9.36764 9.6534C9.43254 9.54509 9.53582 9.46855 9.65821 9.43796C9.69644 9.42836 9.73522 9.42364 9.77361 9.42364C9.84896 9.42372 9.9229 9.44284 9.99086 9.47839C9.99503 9.39037 10.0212 9.30393 10.0727 9.22975C10.2137 9.02627 10.4962 8.96994 10.7163 9.102L12.5391 10.1954L12.3041 9.77217C12.214 9.6106 12.2173 9.41128 12.3129 9.25192C12.3594 9.17436 12.426 9.10994 12.5055 9.06534C12.5709 9.02916 12.6417 9.01201 12.7115 9.01201C12.8615 9.01209 13.0072 9.09122 13.0847 9.23132C13.355 9.7183 13.865 10.6367 13.9009 10.7008C13.9085 10.7119 13.9316 10.7449 13.9513 10.773C13.9701 10.7997 13.9904 10.8252 14.0114 10.8505C14.4665 11.4022 14.5214 12.1247 14.1545 12.7362L14.1545 12.7362ZM13.8176 11.0106C13.7926 10.9803 13.768 10.9494 13.7457 10.9175C13.6777 10.8211 13.676 10.8186 13.6709 10.7933C13.5915 10.6619 13.3977 10.313 12.8649 9.35317C12.8182 9.26893 12.712 9.23817 12.6274 9.2849C12.5858 9.30818 12.5524 9.34066 12.528 9.38133C12.4786 9.46369 12.4767 9.56657 12.5234 9.65012L12.9857 10.4832C13.0133 10.5329 13.0041 10.5949 12.9633 10.6344C12.9226 10.6739 12.8603 10.6809 12.8113 10.6517L10.5871 9.31738C10.4822 9.25453 10.344 9.27915 10.2792 9.37276C10.2419 9.42656 10.23 9.49074 10.2456 9.55344C10.2599 9.6107 10.2959 9.65899 10.3468 9.68951C10.3469 9.68959 10.347 9.68975 10.3471 9.68983L11.8015 10.5623C11.8609 10.598 11.8802 10.6751 11.8445 10.7346C11.8088 10.794 11.7318 10.8135 11.6722 10.7777L9.88669 9.70659C9.83603 9.67623 9.77641 9.66726 9.71914 9.68165C9.66172 9.69597 9.61343 9.73184 9.58299 9.78273C9.55247 9.83346 9.54366 9.89301 9.55782 9.95027C9.57213 10.0075 9.60808 10.0559 9.65889 10.0864L10.0063 10.2948L11.4443 11.1575C11.5037 11.1932 11.523 11.2703 11.4873 11.3299C11.4516 11.3893 11.3746 11.4086 11.315 11.3729L9.86034 10.5002C9.75572 10.4373 9.61949 10.4714 9.55656 10.5762C9.52604 10.627 9.51723 10.6865 9.53139 10.7438C9.54571 10.801 9.58165 10.8493 9.63254 10.8799L9.98918 11.0939L11.0872 11.7527C11.1466 11.7884 11.1659 11.8655 11.1302 11.925C11.0945 11.9844 11.0175 12.0039 10.9579 11.968L9.85987 11.3093C9.80921 11.2789 9.74982 11.2699 9.69225 11.2843C9.63498 11.2986 9.58653 11.3345 9.55609 11.3852C9.52565 11.4361 9.51676 11.4957 9.53092 11.5529C9.54523 11.6101 9.58118 11.6584 9.63207 11.689L11.858 13.0243C12.2192 13.241 12.6357 13.316 13.0305 13.2355C13.4211 13.1557 13.7437 12.9326 13.9389 12.6071C14.2544 12.0815 14.2091 11.4846 13.8177 11.0106L13.8176 11.0106Z" fill="#103E13"/>
</g>
</g>
</svg>
