<svg width="17" height="17" viewBox="0 0 17 17" fill="none" xmlns="http://www.w3.org/2000/svg">
<g id="Icon">
<g id="Group 2">
<g id="Vector">
<mask id="path-1-inside-1_212_1413" fill="white">
<path d="M10.3412 7.92429C10.2608 7.92429 10.1861 7.90219 10.1198 7.86663V7.86758C10.1198 7.99406 10.0707 8.11284 9.98148 8.2018C9.89228 8.291 9.77359 8.34016 9.64726 8.34016C9.56569 8.34016 9.4901 8.31751 9.42308 8.28101C9.41631 8.39672 9.37006 8.50487 9.28755 8.58747C9.19835 8.67667 9.07966 8.72583 8.95324 8.72583C8.70208 8.72583 8.49812 8.5284 8.48342 8.28093C8.4057 8.32294 8.31784 8.34496 8.22722 8.33914C7.98014 8.32294 7.78665 8.10946 7.78665 7.85302V5.72741L7.54461 6.14674C7.45243 6.30712 7.27986 6.4067 7.09406 6.4067C7.00352 6.4067 6.91409 6.38295 6.83488 6.33756C6.73624 6.28038 6.66569 6.18858 6.63635 6.07877C6.60685 5.96888 6.62211 5.85396 6.67914 5.75547C6.67922 5.75547 7.47107 4.38422 7.51937 4.29999C7.52511 4.28732 7.54148 4.25059 7.5554 4.21928C7.56869 4.18939 7.5801 4.15872 7.59103 4.12788C7.82983 3.45371 8.42112 3.03493 9.13423 3.03493C10.0603 3.03493 10.8137 3.85187 10.8137 4.85604L10.8137 7.45163C10.8137 7.57796 10.7647 7.69666 10.6755 7.78594C10.5863 7.87514 10.4676 7.9243 10.3412 7.9243L10.3412 7.92429ZM9.13424 3.28605C8.52149 3.28605 8.0331 3.63215 7.82772 4.21186C7.81459 4.24867 7.8009 4.28549 7.78493 4.32136C7.7386 4.42526 7.7386 4.42526 7.72555 4.44021L7.72382 4.43871C7.65916 4.56071 7.46708 4.89335 6.89657 5.88115C6.87313 5.92166 6.86691 5.9687 6.87887 6.01369C6.89098 6.05868 6.92001 6.0966 6.9602 6.1198C7.08496 6.19146 7.25581 6.14521 7.32691 6.02132L7.8035 5.19619C7.83198 5.14702 7.88955 5.12288 7.94477 5.13782C7.99967 5.15253 8.03782 5.20232 8.03782 5.25911V7.8531C8.03782 7.97549 8.13017 8.08112 8.24368 8.08859C8.30912 8.09206 8.37016 8.07011 8.41602 8.02433C8.45771 7.98264 8.48067 7.92711 8.48067 7.86772V6.17122C8.48067 6.10185 8.53692 6.0456 8.60629 6.0456C8.67567 6.0456 8.73191 6.10177 8.73191 6.17122L8.73183 8.25334C8.73183 8.37541 8.83118 8.47476 8.95325 8.47476C9.01256 8.47476 9.06825 8.45179 9.11002 8.4101C9.15171 8.36833 9.17468 8.31265 9.17468 8.25334V6.17122C9.17468 6.10184 9.23084 6.0456 9.30029 6.0456C9.36967 6.0456 9.42591 6.10176 9.42591 6.17122L9.42583 7.84821V7.86772C9.42583 7.98972 9.52518 8.08906 9.64733 8.08906C9.70656 8.08906 9.7621 8.06601 9.8041 8.02416C9.84579 7.98255 9.86876 7.92702 9.86876 7.86763V6.17113C9.86876 6.10176 9.92492 6.04551 9.99437 6.04551C10.0638 6.04551 10.12 6.10168 10.12 6.17113L10.1198 7.45169C10.1198 7.57385 10.2192 7.67319 10.3412 7.67319C10.4006 7.67319 10.4561 7.65015 10.4978 7.60854C10.5396 7.56669 10.5625 7.511 10.5625 7.45169L10.5626 4.8561C10.5626 3.99047 9.92185 3.28607 9.13423 3.28607L9.13424 3.28605Z"/>
</mask>
<path d="M10.3412 7.92429C10.2608 7.92429 10.1861 7.90219 10.1198 7.86663V7.86758C10.1198 7.99406 10.0707 8.11284 9.98148 8.2018C9.89228 8.291 9.77359 8.34016 9.64726 8.34016C9.56569 8.34016 9.4901 8.31751 9.42308 8.28101C9.41631 8.39672 9.37006 8.50487 9.28755 8.58747C9.19835 8.67667 9.07966 8.72583 8.95324 8.72583C8.70208 8.72583 8.49812 8.5284 8.48342 8.28093C8.4057 8.32294 8.31784 8.34496 8.22722 8.33914C7.98014 8.32294 7.78665 8.10946 7.78665 7.85302V5.72741L7.54461 6.14674C7.45243 6.30712 7.27986 6.4067 7.09406 6.4067C7.00352 6.4067 6.91409 6.38295 6.83488 6.33756C6.73624 6.28038 6.66569 6.18858 6.63635 6.07877C6.60685 5.96888 6.62211 5.85396 6.67914 5.75547C6.67922 5.75547 7.47107 4.38422 7.51937 4.29999C7.52511 4.28732 7.54148 4.25059 7.5554 4.21928C7.56869 4.18939 7.5801 4.15872 7.59103 4.12788C7.82983 3.45371 8.42112 3.03493 9.13423 3.03493C10.0603 3.03493 10.8137 3.85187 10.8137 4.85604L10.8137 7.45163C10.8137 7.57796 10.7647 7.69666 10.6755 7.78594C10.5863 7.87514 10.4676 7.9243 10.3412 7.9243L10.3412 7.92429ZM9.13424 3.28605C8.52149 3.28605 8.0331 3.63215 7.82772 4.21186C7.81459 4.24867 7.8009 4.28549 7.78493 4.32136C7.7386 4.42526 7.7386 4.42526 7.72555 4.44021L7.72382 4.43871C7.65916 4.56071 7.46708 4.89335 6.89657 5.88115C6.87313 5.92166 6.86691 5.9687 6.87887 6.01369C6.89098 6.05868 6.92001 6.0966 6.9602 6.1198C7.08496 6.19146 7.25581 6.14521 7.32691 6.02132L7.8035 5.19619C7.83198 5.14702 7.88955 5.12288 7.94477 5.13782C7.99967 5.15253 8.03782 5.20232 8.03782 5.25911V7.8531C8.03782 7.97549 8.13017 8.08112 8.24368 8.08859C8.30912 8.09206 8.37016 8.07011 8.41602 8.02433C8.45771 7.98264 8.48067 7.92711 8.48067 7.86772V6.17122C8.48067 6.10185 8.53692 6.0456 8.60629 6.0456C8.67567 6.0456 8.73191 6.10177 8.73191 6.17122L8.73183 8.25334C8.73183 8.37541 8.83118 8.47476 8.95325 8.47476C9.01256 8.47476 9.06825 8.45179 9.11002 8.4101C9.15171 8.36833 9.17468 8.31265 9.17468 8.25334V6.17122C9.17468 6.10184 9.23084 6.0456 9.30029 6.0456C9.36967 6.0456 9.42591 6.10176 9.42591 6.17122L9.42583 7.84821V7.86772C9.42583 7.98972 9.52518 8.08906 9.64733 8.08906C9.70656 8.08906 9.7621 8.06601 9.8041 8.02416C9.84579 7.98255 9.86876 7.92702 9.86876 7.86763V6.17113C9.86876 6.10176 9.92492 6.04551 9.99437 6.04551C10.0638 6.04551 10.12 6.10168 10.12 6.17113L10.1198 7.45169C10.1198 7.57385 10.2192 7.67319 10.3412 7.67319C10.4006 7.67319 10.4561 7.65015 10.4978 7.60854C10.5396 7.56669 10.5625 7.511 10.5625 7.45169L10.5626 4.8561C10.5626 3.99047 9.92185 3.28607 9.13423 3.28607L9.13424 3.28605Z" fill="#4CAF4F"/>
<path d="M10.3412 7.92429V7.47914H11.9139L10.5745 8.30341L10.3412 7.92429ZM10.1198 7.86663H9.67469V7.12283L10.3302 7.47432L10.1198 7.86663ZM9.98148 8.2018L9.66671 7.88703L9.66713 7.88662L9.98148 8.2018ZM9.42308 8.28101L8.97868 8.25503L9.01964 7.55443L9.63597 7.89007L9.42308 8.28101ZM9.28755 8.58747L9.60249 8.90208L9.60232 8.90224L9.28755 8.58747ZM8.48342 8.28093L8.27176 7.88932L8.88636 7.55714L8.92779 8.25454L8.48342 8.28093ZM8.22722 8.33914L8.19868 8.78338L8.19809 8.78334L8.22722 8.33914ZM7.78665 5.72741L7.40111 5.50488L8.23181 4.06574V5.72741H7.78665ZM7.54461 6.14674L7.15867 5.9249L7.15907 5.9242L7.54461 6.14674ZM6.83488 6.33756L6.61356 6.72381L6.61161 6.72268L6.83488 6.33756ZM6.63635 6.07877L7.06628 5.96336L7.06642 5.96386L6.63635 6.07877ZM6.67914 5.75547L6.2939 5.53241L6.4225 5.31032H6.67914V5.75547ZM7.51937 4.29999L7.9248 4.48381L7.91606 4.50309L7.90553 4.52145L7.51937 4.29999ZM7.5554 4.21928L7.14865 4.0384L7.14865 4.03839L7.5554 4.21928ZM7.59103 4.12788L8.01064 4.27651L8.0106 4.27663L7.59103 4.12788ZM10.8137 4.85604L10.3685 4.85605V4.85604H10.8137ZM10.8137 7.45163L11.2589 7.45162V7.45163H10.8137ZM10.6755 7.78594L10.9906 8.10042L10.9903 8.10071L10.6755 7.78594ZM10.3412 7.9243V8.36946H8.76841L10.1079 7.54518L10.3412 7.9243ZM9.13424 3.28605V2.84089H9.7244L9.56227 3.40834L9.13424 3.28605ZM7.82772 4.21186L8.24733 4.36051L8.24699 4.36147L7.82772 4.21186ZM7.78493 4.32136L8.19161 4.5024L8.19151 4.50264L7.78493 4.32136ZM7.72555 4.44021L8.06077 4.7331L7.76955 5.0664L7.43458 4.77711L7.72555 4.44021ZM7.72382 4.43871L7.33048 4.23026L7.59205 3.73672L8.01478 4.10181L7.72382 4.43871ZM6.89657 5.88115L7.28205 6.10379L7.28186 6.10411L6.89657 5.88115ZM6.87887 6.01369L6.44902 6.12942L6.44865 6.12803L6.87887 6.01369ZM6.9602 6.1198L6.73848 6.50581L6.73765 6.50533L6.9602 6.1198ZM7.32691 6.02132L6.94082 5.79973L6.94143 5.79867L7.32691 6.02132ZM7.8035 5.19619L7.41802 4.97354L7.4183 4.97307L7.8035 5.19619ZM7.94477 5.13782L7.82957 5.56782L7.82847 5.56752L7.94477 5.13782ZM8.24368 8.08859L8.22017 8.53317L8.21444 8.53279L8.24368 8.08859ZM8.41602 8.02433L8.73079 8.3391L8.73052 8.33938L8.41602 8.02433ZM8.73191 6.17122H9.17707V6.17124L8.73191 6.17122ZM8.73183 8.25334H8.28668V8.25332L8.73183 8.25334ZM9.11002 8.4101L9.42509 8.72458L9.42449 8.72518L9.11002 8.4101ZM9.42591 6.17122H9.87107V6.17124L9.42591 6.17122ZM9.42583 7.84821H8.98068V7.84819L9.42583 7.84821ZM9.8041 8.02416L10.1186 8.33923L10.1183 8.33952L9.8041 8.02416ZM10.12 6.17113H10.5651V6.17119L10.12 6.17113ZM10.1198 7.45169H9.67468L9.67468 7.45164L10.1198 7.45169ZM10.4978 7.60854L10.8126 7.92331L10.8123 7.92361L10.4978 7.60854ZM10.5625 7.45169H10.1174V7.45168L10.5625 7.45169ZM10.5626 4.8561H11.0078V4.85611L10.5626 4.8561ZM9.13423 3.28607V3.73123H8.54408L8.70621 3.16378L9.13423 3.28607ZM10.3412 8.36945C10.1773 8.36945 10.0309 8.32407 9.90948 8.25895L10.3302 7.47432C10.336 7.4774 10.3396 7.47858 10.3411 7.47897C10.3423 7.47931 10.3421 7.47914 10.3412 7.47914V8.36945ZM10.565 7.86663V7.86758H9.67469V7.86663H10.565ZM10.565 7.86758C10.565 8.11175 10.4692 8.34411 10.2958 8.51699L9.66713 7.88662C9.67031 7.88344 9.67188 7.88072 9.6728 7.8785C9.67373 7.87627 9.67469 7.87284 9.67469 7.86758H10.565ZM10.2963 8.51658C10.1235 8.68933 9.89156 8.78532 9.64726 8.78532V7.89501C9.65236 7.89501 9.65573 7.89408 9.65801 7.89314C9.66029 7.89219 9.66323 7.89051 9.66671 7.88703L10.2963 8.51658ZM9.64726 8.78532C9.4812 8.78532 9.33303 8.73886 9.21018 8.67196L9.63597 7.89007C9.64177 7.89322 9.64545 7.89442 9.6469 7.89482C9.64815 7.89516 9.64805 7.89501 9.64726 7.89501V8.78532ZM9.86747 8.30699C9.85466 8.5261 9.76578 8.73861 9.60249 8.90208L8.97261 8.27286C8.97426 8.27121 8.97522 8.26975 8.97603 8.26791C8.9769 8.26591 8.97828 8.26183 8.97868 8.25503L9.86747 8.30699ZM9.60232 8.90224C9.42954 9.07502 9.19758 9.17099 8.95324 9.17099V8.28067C8.95842 8.28067 8.96181 8.27973 8.96409 8.27879C8.96636 8.27785 8.9693 8.27617 8.97278 8.2727L9.60232 8.90224ZM8.95324 9.17099C8.46179 9.17099 8.06743 8.78527 8.03904 8.30733L8.92779 8.25454C8.92824 8.26211 8.93134 8.26875 8.93682 8.27398C8.93949 8.27653 8.9422 8.27817 8.94456 8.27913C8.94663 8.27998 8.94926 8.28067 8.95324 8.28067V9.17099ZM8.69507 8.67255C8.55129 8.75027 8.3808 8.79508 8.19868 8.78338L8.25576 7.8949C8.25577 7.8949 8.25672 7.89499 8.25906 7.89445C8.26157 7.89386 8.26593 7.89247 8.27176 7.88932L8.69507 8.67255ZM8.19809 8.78334C7.70382 8.75093 7.3415 8.33059 7.3415 7.85302H8.23181C8.23181 7.86808 8.23727 7.87967 8.24412 7.88723C8.2508 7.89459 8.25533 7.89487 8.25635 7.89494L8.19809 8.78334ZM7.3415 7.85302V5.72741H8.23181V7.85302H7.3415ZM8.17219 5.94995L7.93015 6.36928L7.15907 5.9242L7.40111 5.50488L8.17219 5.94995ZM7.93055 6.36857C7.75854 6.66783 7.43836 6.85186 7.09406 6.85186V5.96154C7.12135 5.96154 7.14631 5.94641 7.15867 5.9249L7.93055 6.36857ZM7.09406 6.85186C6.92572 6.85186 6.76001 6.80771 6.61356 6.7238L7.0562 5.95132C7.06817 5.95818 7.08133 5.96154 7.09406 5.96154V6.85186ZM6.61161 6.72268C6.41175 6.60681 6.26628 6.41825 6.20628 6.19367L7.06642 5.96386C7.06601 5.96234 7.0649 5.95965 7.06276 5.95686C7.06063 5.95409 7.05866 5.95274 7.05815 5.95244L6.61161 6.72268ZM6.20641 6.19417C6.14617 5.96976 6.17771 5.73308 6.2939 5.53241L7.06437 5.97854C7.06501 5.97744 7.06612 5.9749 7.0666 5.9713C7.06707 5.9677 7.06667 5.96482 7.06628 5.96336L6.20641 6.19417ZM6.67914 5.31032C6.46077 5.36756 6.29733 5.5266 6.2961 5.52865C6.2957 5.52934 6.29509 5.53037 6.2949 5.5307C6.29479 5.53089 6.2946 5.53121 6.29454 5.53132C6.29449 5.53139 6.29441 5.53153 6.29439 5.53156C6.29433 5.53167 6.29435 5.53164 6.29452 5.53135C6.29482 5.53083 6.29533 5.52995 6.29607 5.52867C6.29753 5.52614 6.29973 5.52234 6.30263 5.51732C6.30842 5.50729 6.31694 5.49255 6.32782 5.47372C6.34956 5.43608 6.38068 5.38221 6.41817 5.31727C6.49317 5.18742 6.59366 5.01339 6.69566 4.83673C6.9 4.48282 7.10949 4.11989 7.13322 4.07852L7.90553 4.52145C7.88095 4.56431 7.67036 4.92913 7.46668 5.2819C7.36467 5.45858 7.26416 5.63264 7.18915 5.76252C7.15165 5.82746 7.12051 5.88137 7.09875 5.91905C7.08787 5.93789 7.07932 5.95269 7.07348 5.96278C7.07057 5.96783 7.06831 5.97174 7.06677 5.9744C7.066 5.97572 7.06537 5.97681 7.06491 5.97761C7.0647 5.97798 7.06443 5.97844 7.06417 5.97888C7.06408 5.97905 7.06379 5.97954 7.06345 5.98012C7.06323 5.98049 7.06261 5.98156 7.06219 5.98226C7.06096 5.98434 6.8975 6.14339 6.67914 6.20063V5.31032ZM7.11395 4.11616C7.11885 4.10535 7.13437 4.07051 7.14865 4.0384L7.96215 4.40017C7.94858 4.43067 7.93138 4.46929 7.9248 4.48381L7.11395 4.11616ZM7.14865 4.03839C7.15484 4.02448 7.16169 4.0067 7.17146 3.97913L8.0106 4.27663C7.99851 4.31073 7.98254 4.35431 7.96214 4.40018L7.14865 4.03839ZM7.17142 3.97925C7.47292 3.12806 8.2318 2.58978 9.13423 2.58978V3.48009C8.61043 3.48009 8.18674 3.77936 8.01064 4.27651L7.17142 3.97925ZM9.13423 2.58978C10.3394 2.58978 11.2588 3.64065 11.2588 4.85604H10.3685C10.3685 4.06309 9.78116 3.48009 9.13423 3.48009V2.58978ZM11.2588 4.85602L11.2589 7.45162L10.3686 7.45165L10.3685 4.85605L11.2588 4.85602ZM11.2589 7.45163C11.2589 7.69575 11.1631 7.92758 10.9906 8.10042L10.3605 7.47146C10.364 7.46793 10.3657 7.46494 10.3667 7.4626C10.3676 7.46026 10.3686 7.45682 10.3686 7.45163H11.2589ZM10.9903 8.10071C10.8175 8.27352 10.5855 8.36946 10.3412 8.36946V7.47914C10.3464 7.47914 10.3498 7.47819 10.3521 7.47725C10.3544 7.47631 10.3573 7.47464 10.3608 7.47117L10.9903 8.10071ZM10.1079 7.54518L10.1079 7.54517L10.5745 8.30341L10.5745 8.30342L10.1079 7.54518ZM9.13424 3.7312C8.711 3.7312 8.39006 3.95761 8.24733 4.36051L7.40812 4.06321C7.67613 3.30669 8.33197 2.84089 9.13424 2.84089V3.7312ZM8.24699 4.36147C8.23293 4.40085 8.21468 4.45058 8.19161 4.5024L7.37826 4.14031C7.38713 4.12039 7.39624 4.0965 7.40846 4.06225L8.24699 4.36147ZM8.19151 4.50264C8.17112 4.54836 8.15404 4.58697 8.14097 4.61312C8.13286 4.62935 8.11973 4.65437 8.10069 4.68208C8.08139 4.71015 8.06232 4.73133 8.06077 4.7331L7.39032 4.14731C7.39137 4.14611 7.39103 4.1465 7.3905 4.14711C7.38982 4.1479 7.38809 4.14992 7.38582 4.15269C7.38075 4.15887 7.37411 4.16739 7.36695 4.17781C7.35303 4.19807 7.34524 4.21379 7.34455 4.21517C7.34405 4.21618 7.34436 4.21558 7.34588 4.21234C7.34734 4.2092 7.34942 4.20469 7.35239 4.19811C7.35848 4.18467 7.36656 4.16654 7.37836 4.14008L8.19151 4.50264ZM7.43458 4.77711L7.43285 4.77562L8.01478 4.10181L8.01651 4.1033L7.43458 4.77711ZM8.11715 4.64717C8.04748 4.77863 7.84858 5.12288 7.28205 6.10379L6.51109 5.65851C7.08557 4.66383 7.27084 4.3428 7.33048 4.23026L8.11715 4.64717ZM7.28186 6.10411C7.31748 6.04255 7.32741 5.96829 7.30909 5.89935L6.44865 6.12803C6.40641 5.96911 6.42877 5.80077 6.51127 5.65819L7.28186 6.10411ZM7.30872 5.89796C7.2904 5.82992 7.24538 5.77042 7.18276 5.73427L6.73765 6.50533C6.59464 6.42277 6.49156 6.28744 6.44902 6.12942L7.30872 5.89796ZM7.18193 5.73379C7.13126 5.70469 7.08197 5.70488 7.04794 5.71404C7.01404 5.72317 6.97058 5.74789 6.94082 5.79973L7.713 6.24291C7.51899 6.58094 7.07561 6.69945 6.73848 6.50581L7.18193 5.73379ZM6.94143 5.79867L7.41803 4.97354L8.18898 5.41883L7.71238 6.24397L6.94143 5.79867ZM7.4183 4.97307C7.54687 4.75108 7.80932 4.63999 8.06107 4.70813L7.82847 5.56752C7.96978 5.60576 8.11708 5.54297 8.1887 5.4193L7.4183 4.97307ZM8.05997 4.70783C8.30971 4.77474 8.48298 5.00105 8.48298 5.25911H7.59267C7.59267 5.40359 7.68964 5.53033 7.82957 5.56781L8.05997 4.70783ZM8.48298 5.25911V7.8531H7.59267V5.25911H8.48298ZM8.48298 7.8531C8.48298 7.80237 8.46419 7.75626 8.43334 7.72097C8.40254 7.68573 8.34819 7.64935 8.27291 7.6444L8.21444 8.53279C7.83971 8.50813 7.59267 8.18169 7.59267 7.8531H8.48298ZM8.26719 7.64406C8.2146 7.64128 8.15035 7.66054 8.10152 7.70928L8.73052 8.33938C8.58997 8.47968 8.40365 8.54283 8.22017 8.53313L8.26719 7.64406ZM8.10125 7.70956C8.059 7.7518 8.03552 7.80969 8.03552 7.86772H8.92583C8.92583 8.04453 8.85641 8.21348 8.73079 8.3391L8.10125 7.70956ZM8.03552 7.86772V6.17122H8.92583V7.86772H8.03552ZM8.03552 6.17122C8.03552 5.85599 8.29106 5.60045 8.60629 5.60045V6.49076C8.78277 6.49076 8.92583 6.3477 8.92583 6.17122H8.03552ZM8.60629 5.60045C8.92134 5.60045 9.17707 5.85574 9.17707 6.17122H8.28675C8.28675 6.3478 8.43 6.49076 8.60629 6.49076V5.60045ZM9.17707 6.17124L9.17699 8.25335L8.28668 8.25332L8.28675 6.1712L9.17707 6.17124ZM9.17699 8.25334C9.17699 8.12956 9.07703 8.0296 8.95325 8.0296V8.91991C8.58533 8.91991 8.28668 8.62127 8.28668 8.25334H9.17699ZM8.95325 8.0296C8.89531 8.0296 8.83771 8.05295 8.79555 8.09503L9.42449 8.72518C9.29879 8.85063 9.12981 8.91991 8.95325 8.91991V8.0296ZM8.79495 8.09563C8.75286 8.13779 8.72952 8.1954 8.72952 8.25334H9.61983C9.61983 8.42989 9.55055 8.59888 9.42509 8.72458L8.79495 8.09563ZM8.72952 8.25334V6.17122H9.61983V8.25334H8.72952ZM8.72952 6.17122C8.72952 5.85618 8.9848 5.60045 9.30029 5.60045V6.49076C9.47688 6.49076 9.61983 6.34751 9.61983 6.17122H8.72952ZM9.30029 5.60045C9.61534 5.60045 9.87107 5.85573 9.87107 6.17122H8.98076C8.98076 6.3478 9.124 6.49076 9.30029 6.49076V5.60045ZM9.87107 6.17124L9.87099 7.84823L8.98068 7.84819L8.98076 6.1712L9.87107 6.17124ZM9.87099 7.84821V7.86772H8.98068V7.84821H9.87099ZM9.87099 7.86772C9.87099 7.74365 9.77081 7.6439 9.64733 7.6439V8.53421C9.27954 8.53421 8.98068 8.23579 8.98068 7.86772H9.87099ZM9.64733 7.6439C9.58818 7.6439 9.53092 7.66796 9.48992 7.7088L10.1183 8.33952C9.99328 8.46406 9.82494 8.53421 9.64733 8.53421V7.6439ZM9.48962 7.70909C9.44704 7.7516 9.4236 7.80967 9.4236 7.86763H10.3139C10.3139 8.04437 10.2445 8.21351 10.1186 8.33923L9.48962 7.70909ZM9.4236 7.86763V6.17113H10.3139V7.86763H9.4236ZM9.4236 6.17113C9.4236 5.85608 9.67889 5.60036 9.99437 5.60036V6.49067C10.171 6.49067 10.3139 6.34743 10.3139 6.17113H9.4236ZM9.99437 5.60036C10.3094 5.60036 10.5651 5.85564 10.5651 6.17113H9.67484C9.67484 6.34771 9.81808 6.49067 9.99437 6.49067V5.60036ZM10.5651 6.17119L10.565 7.45175L9.67468 7.45164L9.67484 6.17108L10.5651 6.17119ZM10.565 7.45169C10.565 7.32821 10.4652 7.22804 10.3412 7.22804V8.11835C9.97312 8.11835 9.67468 7.81949 9.67468 7.45169H10.565ZM10.3412 7.22804C10.2828 7.22804 10.2252 7.25168 10.1833 7.29347L10.8123 7.92361C10.687 8.04862 10.5183 8.11835 10.3412 8.11835V7.22804ZM10.183 7.29377C10.1406 7.33616 10.1174 7.39401 10.1174 7.45169H11.0077C11.0077 7.628 10.9386 7.79723 10.8126 7.92331L10.183 7.29377ZM10.1174 7.45168L10.1174 4.85608L11.0078 4.85611L11.0077 7.45171L10.1174 7.45168ZM10.1174 4.8561C10.1174 4.19575 9.6373 3.73123 9.13423 3.73123V2.84092C10.2064 2.84092 11.0078 3.78519 11.0078 4.8561H10.1174ZM8.70621 3.16378L8.70621 3.16375L9.56227 3.40834L9.56226 3.40837L8.70621 3.16378Z" fill="#4CAF4F" mask="url(#path-1-inside-1_212_1413)"/>
</g>
<g id="Vector_2">
<mask id="path-3-inside-2_212_1413" fill="white">
<path d="M5.40578 9.72827L7.2286 8.63475C7.44837 8.50277 7.73115 8.55885 7.8721 8.7625C7.92354 8.83667 7.94982 8.92312 7.95391 9.01114C8.02187 8.97567 8.09581 8.95639 8.17108 8.95639C8.20962 8.95639 8.24832 8.96119 8.28655 8.97071C8.40902 9.00131 8.51222 9.07784 8.57712 9.18607C8.64209 9.29446 8.66105 9.42149 8.63045 9.54382C8.60221 9.657 8.53338 9.75227 8.43766 9.81763C8.5046 9.85712 8.56233 9.911 8.60339 9.97959C8.66836 10.088 8.68732 10.2149 8.6568 10.3374C8.6262 10.4597 8.54967 10.5629 8.44128 10.628L8.44065 10.6284C8.50641 10.6678 8.56312 10.7211 8.60371 10.7887C8.66876 10.8971 8.68772 11.0241 8.65712 11.1466C8.62644 11.269 8.54991 11.3722 8.44168 11.4371L6.21599 12.7724C5.80059 13.0215 5.32038 13.1075 4.864 13.0143C4.40354 12.9202 4.0222 12.6555 3.79032 12.269C3.42338 11.6574 3.47837 10.9348 3.93356 10.3834C3.95441 10.3582 3.97494 10.3325 3.99358 10.306C4.01332 10.2779 4.03637 10.2448 4.04423 10.2335C4.09135 10.1493 4.86016 8.76417 4.86008 8.76433C4.93772 8.62424 5.08324 8.54494 5.23331 8.54502C5.30332 8.54502 5.37435 8.56225 5.43987 8.59859C5.519 8.6428 5.58547 8.70722 5.63196 8.78485C5.72753 8.94414 5.73091 9.14346 5.64093 9.30478L5.40578 9.72827ZM5.41672 8.91399C5.39233 8.87332 5.35882 8.84091 5.31784 8.81795C5.23313 8.77107 5.12647 8.80158 5.07983 8.88598C4.5297 9.87708 4.34217 10.2148 4.2698 10.335L4.27145 10.3354C4.26539 10.3556 4.26539 10.3556 4.19916 10.4502C4.17667 10.4822 4.1522 10.513 4.12727 10.5432C3.73586 11.0175 3.69041 11.6143 4.00558 12.1398C4.20081 12.4652 4.52347 12.6884 4.91416 12.7682C5.3091 12.8485 5.72536 12.7737 6.08665 12.557L8.31254 11.2217C8.36335 11.1912 8.39922 11.1429 8.41354 11.0855C8.42785 11.0283 8.41897 10.9687 8.38845 10.9179C8.32568 10.8133 8.18936 10.7789 8.08475 10.8419L6.98668 11.5007C6.92722 11.5364 6.84997 11.5172 6.81434 11.4577C6.77863 11.3982 6.7979 11.321 6.85737 11.2853L7.95551 10.6265L8.31215 10.4126C8.36296 10.3821 8.39891 10.3337 8.41323 10.2765C8.42754 10.2192 8.41865 10.1596 8.38813 10.1088C8.32529 10.0041 8.18897 9.97007 8.08444 10.0328L6.62965 10.9056C6.57003 10.9413 6.49302 10.922 6.45731 10.8625C6.4216 10.8031 6.44095 10.7259 6.50034 10.6902L8.2858 9.61911C8.33661 9.58859 8.37248 9.54029 8.3868 9.48295C8.40111 9.42569 8.39223 9.36614 8.36179 9.31533C8.33135 9.2646 8.28297 9.22873 8.22563 9.21441C8.16797 9.2001 8.10866 9.20898 8.05801 9.23935L7.72749 9.43765C7.72741 9.43765 7.72741 9.43772 7.72733 9.43772H7.72725L6.27255 10.3104C6.21293 10.3463 6.13584 10.327 6.10021 10.2674C6.0645 10.2079 6.08385 10.1308 6.14324 10.0951L7.59802 9.22236C7.64883 9.19184 7.68478 9.14346 7.69909 9.08628C7.71482 9.02351 7.70287 8.95932 7.66558 8.90552C7.60093 8.812 7.46265 8.78714 7.3578 8.85015L5.13352 10.1845C5.08483 10.2136 5.02245 10.2065 4.98163 10.1671C4.94073 10.1276 4.93152 10.0656 4.95905 10.0159L5.42157 9.18264C5.46798 9.09934 5.46617 8.99645 5.41669 8.91402L5.41672 8.91399Z"/>
</mask>
<path d="M5.40578 9.72827L7.2286 8.63475C7.44837 8.50277 7.73115 8.55885 7.8721 8.7625C7.92354 8.83667 7.94982 8.92312 7.95391 9.01114C8.02187 8.97567 8.09581 8.95639 8.17108 8.95639C8.20962 8.95639 8.24832 8.96119 8.28655 8.97071C8.40902 9.00131 8.51222 9.07784 8.57712 9.18607C8.64209 9.29446 8.66105 9.42149 8.63045 9.54382C8.60221 9.657 8.53338 9.75227 8.43766 9.81763C8.5046 9.85712 8.56233 9.911 8.60339 9.97959C8.66836 10.088 8.68732 10.2149 8.6568 10.3374C8.6262 10.4597 8.54967 10.5629 8.44128 10.628L8.44065 10.6284C8.50641 10.6678 8.56312 10.7211 8.60371 10.7887C8.66876 10.8971 8.68772 11.0241 8.65712 11.1466C8.62644 11.269 8.54991 11.3722 8.44168 11.4371L6.21599 12.7724C5.80059 13.0215 5.32038 13.1075 4.864 13.0143C4.40354 12.9202 4.0222 12.6555 3.79032 12.269C3.42338 11.6574 3.47837 10.9348 3.93356 10.3834C3.95441 10.3582 3.97494 10.3325 3.99358 10.306C4.01332 10.2779 4.03637 10.2448 4.04423 10.2335C4.09135 10.1493 4.86016 8.76417 4.86008 8.76433C4.93772 8.62424 5.08324 8.54494 5.23331 8.54502C5.30332 8.54502 5.37435 8.56225 5.43987 8.59859C5.519 8.6428 5.58547 8.70722 5.63196 8.78485C5.72753 8.94414 5.73091 9.14346 5.64093 9.30478L5.40578 9.72827ZM5.41672 8.91399C5.39233 8.87332 5.35882 8.84091 5.31784 8.81795C5.23313 8.77107 5.12647 8.80158 5.07983 8.88598C4.5297 9.87708 4.34217 10.2148 4.2698 10.335L4.27145 10.3354C4.26539 10.3556 4.26539 10.3556 4.19916 10.4502C4.17667 10.4822 4.1522 10.513 4.12727 10.5432C3.73586 11.0175 3.69041 11.6143 4.00558 12.1398C4.20081 12.4652 4.52347 12.6884 4.91416 12.7682C5.3091 12.8485 5.72536 12.7737 6.08665 12.557L8.31254 11.2217C8.36335 11.1912 8.39922 11.1429 8.41354 11.0855C8.42785 11.0283 8.41897 10.9687 8.38845 10.9179C8.32568 10.8133 8.18936 10.7789 8.08475 10.8419L6.98668 11.5007C6.92722 11.5364 6.84997 11.5172 6.81434 11.4577C6.77863 11.3982 6.7979 11.321 6.85737 11.2853L7.95551 10.6265L8.31215 10.4126C8.36296 10.3821 8.39891 10.3337 8.41323 10.2765C8.42754 10.2192 8.41865 10.1596 8.38813 10.1088C8.32529 10.0041 8.18897 9.97007 8.08444 10.0328L6.62965 10.9056C6.57003 10.9413 6.49302 10.922 6.45731 10.8625C6.4216 10.8031 6.44095 10.7259 6.50034 10.6902L8.2858 9.61911C8.33661 9.58859 8.37248 9.54029 8.3868 9.48295C8.40111 9.42569 8.39223 9.36614 8.36179 9.31533C8.33135 9.2646 8.28297 9.22873 8.22563 9.21441C8.16797 9.2001 8.10866 9.20898 8.05801 9.23935L7.72749 9.43765C7.72741 9.43765 7.72741 9.43772 7.72733 9.43772H7.72725L6.27255 10.3104C6.21293 10.3463 6.13584 10.327 6.10021 10.2674C6.0645 10.2079 6.08385 10.1308 6.14324 10.0951L7.59802 9.22236C7.64883 9.19184 7.68478 9.14346 7.69909 9.08628C7.71482 9.02351 7.70287 8.95932 7.66558 8.90552C7.60093 8.812 7.46265 8.78714 7.3578 8.85015L5.13352 10.1845C5.08483 10.2136 5.02245 10.2065 4.98163 10.1671C4.94073 10.1276 4.93152 10.0656 4.95905 10.0159L5.42157 9.18264C5.46798 9.09934 5.46617 8.99645 5.41669 8.91402L5.41672 8.91399Z" fill="#4CAF4F"/>
<path d="M5.40578 9.72827L5.63479 10.11L4.21009 10.9647L5.0166 9.51217L5.40578 9.72827ZM7.2286 8.63475L7.45779 9.01637L7.4576 9.01649L7.2286 8.63475ZM7.8721 8.7625L7.50631 9.01619L7.50607 9.01585L7.8721 8.7625ZM7.95391 9.01114L8.1599 9.40577L7.5416 9.72851L7.50923 9.0318L7.95391 9.01114ZM8.28655 8.97071L8.39409 8.53874L8.39445 8.53883L8.28655 8.97071ZM8.57712 9.18607L8.95889 8.95713L8.95893 8.9572L8.57712 9.18607ZM8.63045 9.54382L8.19853 9.43606L8.1986 9.43579L8.63045 9.54382ZM8.43766 9.81763L8.21148 10.201L7.60803 9.84508L8.18664 9.45L8.43766 9.81763ZM8.60339 9.97959L8.22158 10.2085L8.22144 10.2082L8.60339 9.97959ZM8.6568 10.3374L9.08874 10.4451L9.08865 10.4454L8.6568 10.3374ZM8.44128 10.628L8.20531 10.2504L8.21218 10.2463L8.44128 10.628ZM8.44065 10.6284L8.21182 11.0102L7.58797 10.6364L8.20472 10.2509L8.44065 10.6284ZM8.60371 10.7887L8.9853 10.5594L8.9854 10.5596L8.60371 10.7887ZM8.65712 11.1466L9.089 11.2545L9.08892 11.2548L8.65712 11.1466ZM8.44168 11.4371L8.67082 11.8188L8.67068 11.8189L8.44168 11.4371ZM6.21599 12.7724L6.445 13.1541L6.44493 13.1541L6.21599 12.7724ZM4.864 13.0143L4.77492 13.4504L4.77489 13.4504L4.864 13.0143ZM3.79032 12.269L4.17204 12.0399L4.17206 12.04L3.79032 12.269ZM3.93356 10.3834L3.59025 10.1L3.59071 10.0994L3.93356 10.3834ZM3.99358 10.306L3.62909 10.0504L3.62942 10.0499L3.99358 10.306ZM4.04423 10.2335L4.43267 10.451L4.42215 10.4697L4.40988 10.4874L4.04423 10.2335ZM4.86008 8.76433L5.24945 8.98011L4.46192 8.56525L4.86008 8.76433ZM5.23331 8.54502V8.99018H5.23308L5.23331 8.54502ZM5.43987 8.59859L5.65578 8.20929L5.65698 8.20996L5.43987 8.59859ZM5.63196 8.78485L5.25024 9.01388L5.25004 9.01354L5.63196 8.78485ZM5.64093 9.30478L5.25174 9.08868L5.25217 9.08791L5.64093 9.30478ZM5.41672 8.91399L5.7985 8.68507L5.9529 8.94257L5.772 9.18219L5.41672 8.91399ZM5.31784 8.81795L5.53339 8.42845L5.53547 8.42962L5.31784 8.81795ZM5.07983 8.88598L5.46946 9.10129L5.46904 9.10203L5.07983 8.88598ZM4.2698 10.335L4.16669 10.7681L3.57435 10.627L3.88843 10.1054L4.2698 10.335ZM4.27145 10.3354L4.37456 9.90237L4.83368 10.0117L4.69774 10.4636L4.27145 10.3354ZM4.19916 10.4502L4.56386 10.7054L4.56338 10.7061L4.19916 10.4502ZM4.12727 10.5432L4.47092 10.8262L4.47059 10.8266L4.12727 10.5432ZM4.00558 12.1398L3.62383 12.3687L3.62383 12.3687L4.00558 12.1398ZM4.91416 12.7682L4.82546 13.2044L4.82512 13.2043L4.91416 12.7682ZM6.08665 12.557L5.85762 12.1753L5.85765 12.1752L6.08665 12.557ZM8.31254 11.2217L8.08354 10.8399L8.08377 10.8398L8.31254 11.2217ZM8.41354 11.0855L7.98164 10.9777L7.98167 10.9776L8.41354 11.0855ZM8.38845 10.9179L8.00683 11.1471L8.00673 11.1469L8.38845 10.9179ZM8.08475 10.8419L8.31441 11.2233L8.31376 11.2236L8.08475 10.8419ZM6.98668 11.5007L6.75751 11.1191L6.75767 11.119L6.98668 11.5007ZM6.81434 11.4577L7.19597 11.2285L7.19633 11.2291L6.81434 11.4577ZM6.85737 11.2853L6.62819 10.9037L6.62837 10.9036L6.85737 11.2853ZM7.95551 10.6265L8.18452 11.0083L8.18451 11.0083L7.95551 10.6265ZM8.31215 10.4126L8.54136 10.7942L8.54116 10.7943L8.31215 10.4126ZM8.41323 10.2765L8.84513 10.3843L8.84506 10.3846L8.41323 10.2765ZM8.38813 10.1088L8.00668 10.3383L8.00647 10.3379L8.38813 10.1088ZM8.08444 10.0328L8.31359 10.4145L8.31344 10.4146L8.08444 10.0328ZM6.62965 10.9056L6.40055 10.5239L6.40065 10.5238L6.62965 10.9056ZM6.45731 10.8625L6.83894 10.6334L6.83894 10.6334L6.45731 10.8625ZM6.50034 10.6902L6.27094 10.3087L6.27134 10.3085L6.50034 10.6902ZM8.2858 9.61911L8.51501 10.0007L8.5148 10.0008L8.2858 9.61911ZM8.3868 9.48295L7.9549 9.37513L7.95493 9.37499L8.3868 9.48295ZM8.36179 9.31533L8.7435 9.0863L8.74366 9.08656L8.36179 9.31533ZM8.22563 9.21441L8.3329 8.78237L8.33345 8.78251L8.22563 9.21441ZM8.05801 9.23935L7.82899 8.85762L7.82915 8.85753L8.05801 9.23935ZM7.72749 9.43765L7.95651 9.81937L7.85078 9.8828H7.72749V9.43765ZM7.72725 9.43772L7.49824 9.05599L7.60396 8.99257H7.72725V9.43772ZM6.27255 10.3104L6.04308 9.92899L6.04354 9.92871L6.27255 10.3104ZM6.10021 10.2674L6.48184 10.0382L6.4822 10.0388L6.10021 10.2674ZM6.14324 10.0951L5.91384 9.71358L5.91423 9.71334L6.14324 10.0951ZM7.59802 9.22236L7.82722 9.60397L7.82702 9.60409L7.59802 9.22236ZM7.69909 9.08628L7.26726 8.97818L7.26729 8.97806L7.69909 9.08628ZM7.66558 8.90552L7.2997 9.15908L7.29941 9.15867L7.66558 8.90552ZM7.3578 8.85015L7.58708 9.23171L7.5868 9.23188L7.3578 8.85015ZM5.13352 10.1845L5.36252 10.5662L5.36191 10.5666L5.13352 10.1845ZM4.98163 10.1671L4.67246 10.4874L4.67245 10.4874L4.98163 10.1671ZM4.95905 10.0159L4.56977 9.80002L4.56983 9.79992L4.95905 10.0159ZM5.42157 9.18264L5.03235 8.96661L5.03269 8.96598L5.42157 9.18264ZM5.41669 8.91402L5.035 9.14309L4.88043 8.88554L5.06141 8.64581L5.41669 8.91402ZM5.17678 9.34653L6.9996 8.25302L7.4576 9.01649L5.63479 10.11L5.17678 9.34653ZM6.99941 8.25313C7.40888 8.00721 7.9561 8.10168 8.23813 8.50915L7.50607 9.01585C7.50554 9.01508 7.50301 9.01134 7.49325 9.0094C7.48323 9.00741 7.47055 9.00871 7.45779 9.01637L6.99941 8.25313ZM8.2379 8.50881C8.34194 8.65883 8.39103 8.82802 8.39858 8.99048L7.50923 9.0318C7.5086 9.01821 7.50515 9.01451 7.50631 9.01619L8.2379 8.50881ZM7.74792 8.61651C7.87481 8.55028 8.019 8.51124 8.17108 8.51124V9.40155C8.17261 9.40155 8.16892 9.40106 8.1599 9.40577L7.74792 8.61651ZM8.17108 8.51124C8.24668 8.51124 8.32147 8.52066 8.39409 8.53874L8.179 9.40268C8.17517 9.40172 8.17257 9.40155 8.17108 9.40155V8.51124ZM8.39445 8.53883C8.63163 8.59809 8.8333 8.7477 8.95889 8.95713L8.19534 9.41501C8.19278 9.41072 8.19029 9.40835 8.18833 9.40689C8.18637 9.40544 8.18342 9.40378 8.17865 9.40259L8.39445 8.53883ZM8.95893 8.9572C9.08439 9.1665 9.12163 9.41466 9.0623 9.65184L8.1986 9.43579C8.19976 9.43113 8.1997 9.42781 8.19934 9.42537C8.19897 9.42292 8.19802 9.41947 8.19531 9.41494L8.95893 8.9572ZM9.06237 9.65157C9.00642 9.87583 8.86999 10.0615 8.68868 10.1853L8.18664 9.45C8.19226 9.44616 8.19499 9.44292 8.19619 9.44123C8.19728 9.43969 8.19799 9.43823 8.19853 9.43606L9.06237 9.65157ZM8.66383 9.43421C8.78714 9.50695 8.90177 9.61134 8.98534 9.75094L8.22144 10.2082C8.2219 10.209 8.22203 10.2089 8.22097 10.2079C8.2198 10.2068 8.21691 10.2042 8.21148 10.201L8.66383 9.43421ZM8.98521 9.75072C9.11069 9.96006 9.14782 10.208 9.08874 10.4451L8.22485 10.2298C8.22608 10.2249 8.226 10.2214 8.22563 10.2189C8.22526 10.2165 8.2243 10.213 8.22158 10.2085L8.98521 9.75072ZM9.08865 10.4454C9.02933 10.6826 8.87967 10.884 8.67038 11.0097L8.21218 10.2463C8.2167 10.2436 8.21918 10.241 8.22067 10.239C8.22216 10.237 8.22378 10.234 8.22495 10.2294L9.08865 10.4454ZM8.67721 11.0055L8.67658 11.0059L8.20472 10.2509L8.20535 10.2505L8.67721 11.0055ZM8.66948 10.2465C8.79057 10.3191 8.90291 10.4223 8.9853 10.5594L8.22211 11.0179C8.22246 11.0185 8.22247 11.0183 8.22133 11.0172C8.22009 11.016 8.21718 11.0134 8.21182 11.0102L8.66948 10.2465ZM8.9854 10.5596C9.11111 10.7691 9.14826 11.0173 9.089 11.2545L8.22524 11.0387C8.22644 11.0338 8.22636 11.0305 8.226 11.028C8.22564 11.0256 8.22471 11.0222 8.22202 11.0178L8.9854 10.5596ZM9.08892 11.2548C9.02954 11.4917 8.88004 11.6932 8.67082 11.8188L8.21253 11.0555C8.21692 11.0529 8.21938 11.0503 8.2209 11.0482C8.22242 11.0462 8.22411 11.0432 8.22532 11.0383L9.08892 11.2548ZM8.67068 11.8189L6.445 13.1541L5.98698 12.3906L8.21267 11.0554L8.67068 11.8189ZM6.44493 13.1541C5.93831 13.458 5.34514 13.5669 4.77492 13.4504L4.95308 12.5781C5.29561 12.6481 5.66287 12.585 5.98704 12.3906L6.44493 13.1541ZM4.77489 13.4504C4.19809 13.3326 3.7077 12.9966 3.40858 12.498L4.17206 12.04C4.33669 12.3144 4.60899 12.5078 4.95311 12.5781L4.77489 13.4504ZM3.40861 12.498C2.94425 11.7241 3.01551 10.7963 3.59025 10.1L4.27687 10.6667C3.94123 11.0734 3.9025 11.5907 4.17204 12.0399L3.40861 12.498ZM3.59071 10.0994C3.60913 10.0772 3.62073 10.0623 3.62909 10.0504L4.35807 10.5615C4.32914 10.6028 4.29968 10.6392 4.27641 10.6673L3.59071 10.0994ZM3.62942 10.0499C3.64866 10.0226 3.67121 9.99023 3.67859 9.97961L4.40988 10.4874C4.40152 10.4994 4.37798 10.5332 4.35773 10.562L3.62942 10.0499ZM3.6558 10.0161C3.67885 9.97489 3.88218 9.60874 4.08066 9.25122C4.17969 9.07284 4.27725 8.89709 4.35005 8.76594C4.38645 8.70036 4.41666 8.64594 4.43777 8.60792C4.44832 8.5889 4.4566 8.57399 4.46224 8.56383C4.46506 8.55875 4.46722 8.55486 4.46868 8.55223C4.46941 8.55092 4.46996 8.54991 4.47034 8.54923C4.47053 8.5489 4.47068 8.54862 4.47079 8.54843C4.47084 8.54833 4.47091 8.54822 4.47096 8.54811C4.471 8.54805 4.47108 8.54791 4.47113 8.54781C4.47129 8.54754 5.06821 8.37082 5.25824 8.96341L4.46192 8.56525C4.65196 9.15784 5.24888 8.98113 5.24902 8.98088C5.24906 8.9808 5.24912 8.98069 5.24914 8.98067C5.24915 8.98064 5.24914 8.98066 5.2491 8.98073C5.24903 8.98087 5.2489 8.98109 5.24872 8.98142C5.24836 8.98207 5.24782 8.98305 5.24709 8.98435C5.24564 8.98696 5.24348 8.99085 5.24067 8.99593C5.23503 9.00608 5.22675 9.02099 5.2162 9.04C5.19509 9.07803 5.16488 9.13245 5.12848 9.19803C5.05568 9.32919 4.9581 9.50496 4.85906 9.68337C4.66137 10.0394 4.45673 10.408 4.43267 10.451L3.6558 10.0161ZM4.47072 8.54855C4.63009 8.26098 4.92836 8.0997 5.23355 8.09987L5.23308 8.99018C5.23625 8.99018 5.23899 8.98942 5.24161 8.98792C5.24486 8.98605 5.24785 8.98299 5.24945 8.98011L4.47072 8.54855ZM5.23331 8.09987C5.37672 8.09987 5.52234 8.13529 5.65578 8.2093L5.22397 8.98788C5.22636 8.98921 5.22993 8.99018 5.23331 8.99018V8.09987ZM5.65698 8.20996C5.80387 8.29202 5.92726 8.4115 6.01388 8.55616L5.25004 9.01354C5.24368 9.00293 5.23414 8.99357 5.22277 8.98722L5.65698 8.20996ZM6.01368 8.55582C6.19075 8.85095 6.19777 9.22033 6.02969 9.52164L5.25217 9.08791C5.26406 9.0666 5.2643 9.03732 5.25024 9.01388L6.01368 8.55582ZM6.03011 9.52087L5.79497 9.94436L5.0166 9.51217L5.25174 9.08868L6.03011 9.52087ZM5.03493 9.14291C5.05058 9.169 5.07375 9.19145 5.10021 9.20627L5.53547 8.42962C5.6439 8.49038 5.73409 8.57764 5.7985 8.68507L5.03493 9.14291ZM5.1023 9.20744C5.2315 9.27894 5.39642 9.23345 5.46945 9.10129L4.6902 8.67068C4.85651 8.36972 5.23475 8.26319 5.53338 8.42845L5.1023 9.20744ZM5.46904 9.10203C4.92262 10.0864 4.72887 10.4356 4.65116 10.5647L3.88843 10.1054C3.95546 9.99408 4.13678 9.66772 4.69061 8.66994L5.46904 9.10203ZM4.3729 9.90198L4.37456 9.90237L4.16834 10.7685L4.16669 10.7681L4.3729 9.90198ZM4.69774 10.4636C4.69711 10.4657 4.68895 10.4945 4.67472 10.527C4.66038 10.5598 4.64497 10.5855 4.63453 10.6021C4.61807 10.6283 4.59267 10.6643 4.56386 10.7054L3.83446 10.1949C3.85136 10.1708 3.86283 10.1544 3.87127 10.1422C3.87539 10.1362 3.87813 10.1322 3.87998 10.1294C3.88189 10.1266 3.88204 10.1263 3.88121 10.1276C3.8798 10.1298 3.86967 10.1459 3.85911 10.17C3.85376 10.1823 3.8499 10.1929 3.84731 10.2006C3.84615 10.204 3.84535 10.2066 3.84505 10.2076C3.84481 10.2083 3.84468 10.2088 3.84516 10.2072L4.69774 10.4636ZM4.56338 10.7061C4.53125 10.7519 4.49847 10.7927 4.47092 10.8262L3.78362 10.2603C3.80593 10.2332 3.82209 10.2125 3.83494 10.1942L4.56338 10.7061ZM4.47059 10.8266C4.19865 11.1561 4.16957 11.5477 4.38734 11.9108L3.62383 12.3687C3.21124 11.6808 3.27307 10.8789 3.78395 10.2599L4.47059 10.8266ZM4.38733 11.9108C4.51478 12.1233 4.72783 12.2758 5.00321 12.332L4.82512 13.2043C4.31912 13.101 3.88685 12.8072 3.62383 12.3687L4.38733 11.9108ZM5.00287 12.3319C5.28377 12.3891 5.58721 12.3375 5.85762 12.1753L6.31568 12.9387C5.86351 13.21 5.33443 13.3079 4.82546 13.2044L5.00287 12.3319ZM5.85765 12.1752L8.08354 10.8399L8.54154 11.6034L6.31565 12.9387L5.85765 12.1752ZM8.08377 10.8398C8.03334 10.87 7.99601 10.9201 7.98164 10.9777L8.84544 11.1933C8.80244 11.3656 8.69337 11.5125 8.54131 11.6035L8.08377 10.8398ZM7.98167 10.9776C7.96726 11.0352 7.9767 11.0969 8.00683 11.1471L8.77006 10.6887C8.86123 10.8405 8.88845 11.0213 8.8454 11.1935L7.98167 10.9776ZM8.00673 11.1469C8.06991 11.2522 8.20703 11.2879 8.31441 11.2233L7.85508 10.4606C8.17169 10.2699 8.58144 10.3743 8.77016 10.6889L8.00673 11.1469ZM8.31376 11.2236L7.2157 11.8824L6.75767 11.119L7.85574 10.4602L8.31376 11.2236ZM7.21586 11.8823C6.94616 12.0443 6.59483 11.9577 6.43236 11.6862L7.19633 11.2291C7.10512 11.0767 6.90827 11.0285 6.75751 11.1191L7.21586 11.8823ZM6.43271 11.6868C6.2704 11.4165 6.35802 11.0659 6.62819 10.9037L7.08654 11.6669C7.23779 11.5761 7.28687 11.3798 7.19597 11.2285L6.43271 11.6868ZM6.62837 10.9036L7.72651 10.2448L8.18451 11.0083L7.08637 11.6671L6.62837 10.9036ZM7.72651 10.2448L8.08315 10.0309L8.54116 10.7943L8.18452 11.0083L7.72651 10.2448ZM8.08295 10.031C8.03337 10.0608 7.99593 10.1104 7.9814 10.1684L8.84506 10.3846C8.8019 10.557 8.69256 10.7034 8.54136 10.7942L8.08295 10.031ZM7.98133 10.1687C7.96703 10.226 7.97625 10.2877 8.00668 10.3383L8.76959 9.87935C8.86106 10.0314 8.88806 10.2124 8.84513 10.3843L7.98133 10.1687ZM8.00647 10.3379C8.07001 10.4438 8.20708 10.4784 8.31359 10.4145L7.85528 9.6512C8.17086 9.4617 8.58056 9.56447 8.7698 9.87971L8.00647 10.3379ZM8.31344 10.4146L6.85865 11.2873L6.40065 10.5238L7.85543 9.6511L8.31344 10.4146ZM6.85876 11.2872C6.58806 11.4497 6.23776 11.3616 6.07568 11.0917L6.83894 10.6334C6.74828 10.4824 6.552 10.433 6.40055 10.5239L6.85876 11.2872ZM6.07568 11.0917C5.91316 10.8211 6.00143 10.4708 6.27094 10.3087L6.72974 11.0717C6.88048 10.981 6.93004 10.7851 6.83894 10.6334L6.07568 11.0917ZM6.27134 10.3085L8.0568 9.23737L8.5148 10.0008L6.72934 11.0719L6.27134 10.3085ZM8.0566 9.23749C8.00681 9.2674 7.96934 9.31727 7.9549 9.37513L8.8187 9.59077C8.77562 9.76331 8.66642 9.90978 8.51501 10.0007L8.0566 9.23749ZM7.95493 9.37499C7.94052 9.43263 7.94998 9.49415 7.97991 9.5441L8.74366 9.08656C8.83447 9.23814 8.86171 9.41874 8.81866 9.59092L7.95493 9.37499ZM7.98007 9.54436C8.01027 9.5947 8.06032 9.63196 8.11781 9.64631L8.33345 8.78251C8.50562 8.82549 8.65242 8.93449 8.7435 9.0863L7.98007 9.54436ZM8.11836 9.64645C8.17476 9.66045 8.23634 9.65145 8.28687 9.62117L7.82915 8.85753C7.98098 8.76652 8.16118 8.73974 8.3329 8.78237L8.11836 9.64645ZM8.28703 9.62107L7.95651 9.81937L7.49847 9.05592L7.82899 8.85762L8.28703 9.62107ZM7.72749 9.8828C7.74609 9.8828 7.76569 9.88163 7.78605 9.87893C7.80646 9.87622 7.82701 9.87205 7.84749 9.86632C7.86799 9.86058 7.88756 9.85351 7.90612 9.84538C7.92464 9.83726 7.94142 9.8284 7.95647 9.81938C7.98631 9.80147 8.00835 9.78346 8.02194 9.77147C8.02873 9.76548 8.03403 9.76043 8.03722 9.75734C8.04013 9.75452 8.04258 9.75205 8.04217 9.75247C8.04217 9.75247 8.04217 9.75247 8.04217 9.75247C8.04216 9.75247 8.04216 9.75248 8.04215 9.75249C8.04214 9.7525 8.04212 9.75252 8.04209 9.75254C8.04204 9.75259 8.04196 9.75268 8.04186 9.75278C8.04166 9.75297 8.04134 9.7533 8.04094 9.7537C8.04015 9.75448 8.03884 9.75577 8.03721 9.75735C8.03401 9.76045 8.0287 9.76551 8.02191 9.7715C8.00831 9.7835 7.98626 9.80152 7.95641 9.81943C7.94135 9.82846 7.92456 9.83732 7.90603 9.84544C7.88747 9.85358 7.86789 9.86065 7.84739 9.86639C7.82689 9.87213 7.80634 9.8763 7.78592 9.87901C7.76555 9.88171 7.74595 9.88288 7.72733 9.88288V8.99257C7.70872 8.99257 7.68913 8.99374 7.66876 8.99644C7.64835 8.99915 7.62781 9.00332 7.60733 9.00905C7.58683 9.01479 7.56726 9.02186 7.5487 9.02999C7.53018 9.03811 7.5134 9.04696 7.49835 9.05599C7.46851 9.0739 7.44647 9.09191 7.43288 9.1039C7.42609 9.10989 7.42079 9.11494 7.41759 9.11803C7.41468 9.12085 7.41223 9.12331 7.41265 9.1229C7.41265 9.1229 7.41265 9.1229 7.41265 9.1229C7.41265 9.12289 7.41266 9.12289 7.41267 9.12288C7.41268 9.12287 7.4127 9.12285 7.41272 9.12282C7.41277 9.12277 7.41285 9.12269 7.41296 9.12259C7.41315 9.1224 7.41348 9.12207 7.41388 9.12167C7.41467 9.12089 7.41598 9.1196 7.41761 9.11802C7.42081 9.11492 7.42611 9.10986 7.43291 9.10387C7.44651 9.09187 7.46856 9.07385 7.49841 9.05594C7.51347 9.04691 7.53025 9.03805 7.54878 9.02993C7.56735 9.02179 7.58693 9.01472 7.60743 9.00898C7.62792 9.00324 7.64847 8.99907 7.66889 8.99636C7.68926 8.99366 7.70887 8.99249 7.72749 8.99249V9.8828ZM7.72733 9.88288H7.72725V8.99257H7.72733V9.88288ZM7.95626 9.81945L6.50156 10.6922L6.04354 9.92871L7.49824 9.05599L7.95626 9.81945ZM6.50202 10.6919C6.23134 10.8547 5.88028 10.7668 5.71822 10.496L6.4822 10.0388C6.3914 9.88711 6.19452 9.83789 6.04308 9.92899L6.50202 10.6919ZM5.71858 10.4966C5.55606 10.226 5.64432 9.87564 5.91384 9.71358L6.37263 10.4766C6.52337 10.3859 6.57294 10.1899 6.48184 10.0382L5.71858 10.4966ZM5.91423 9.71334L7.36902 8.84062L7.82702 9.60409L6.37224 10.4768L5.91423 9.71334ZM7.36881 8.84074C7.31924 8.87052 7.28179 8.92014 7.26726 8.97818L8.13092 9.19438C8.08776 9.36679 7.97842 9.51316 7.82722 9.60397L7.36881 8.84074ZM7.26729 8.97806C7.25131 9.04183 7.26513 9.1092 7.2997 9.15908L8.03147 8.65197C8.1406 8.80945 8.17834 9.00519 8.13089 9.1945L7.26729 8.97806ZM7.29941 9.15867C7.34257 9.22109 7.40198 9.24899 7.44796 9.25726C7.49403 9.26555 7.54335 9.25799 7.58708 9.23171L7.12851 8.46858C7.41018 8.29933 7.81791 8.34305 8.03175 8.65238L7.29941 9.15867ZM7.5868 9.23188L5.36252 10.5662L4.90451 9.80278L7.12879 8.46841L7.5868 9.23188ZM5.36191 10.5666C5.14117 10.6986 4.85839 10.6669 4.67246 10.4874L5.2908 9.84685C5.18651 9.74619 5.02849 9.72868 4.90513 9.80241L5.36191 10.5666ZM4.67245 10.4874C4.48635 10.3077 4.4446 10.0257 4.56977 9.80002L5.34833 10.2319C5.41844 10.1055 5.3951 9.94755 5.29081 9.84686L4.67245 10.4874ZM4.56983 9.79992L5.03235 8.96661L5.81079 9.39867L5.34828 10.232L4.56983 9.79992ZM5.03269 8.96598C5.00094 9.02297 5.00317 9.09005 5.035 9.14309L5.79838 8.68494C5.92917 8.90286 5.93501 9.17571 5.81044 9.39929L5.03269 8.96598ZM5.06141 8.64581L5.06143 8.64578L5.772 9.18219L5.77198 9.18222L5.06141 8.64581Z" fill="#4CAF4F" mask="url(#path-3-inside-2_212_1413)"/>
</g>
<path id="Vector_3" d="M9.73094 8.98509C9.6962 8.98538 9.66127 8.98977 9.62682 8.9984L9.73094 8.98509ZM9.73094 8.98509C9.73159 8.97553 9.73243 8.96595 9.73346 8.95636L9.73094 8.98509ZM9.32731 9.99421C9.3273 9.99423 9.32728 9.99425 9.32727 9.99427C9.32727 9.99427 9.32727 9.99428 9.32727 9.99428L9.32731 9.99421ZM9.32731 9.99421L9.30281 9.97948L9.32733 9.99418M9.32731 9.99421L9.32733 9.99418M9.32733 9.99418C9.32787 9.99328 9.32841 9.99239 9.32895 9.99151L9.32733 9.99418ZM11.0339 11.3099L11.0339 11.3099L11.0339 11.3099Z" fill="#4CAF4F" stroke="#4CAF4F" stroke-width="0.445155"/>
</g>
</g>
</svg>
