<svg width="17" height="10" viewBox="0 0 17 10" fill="none" xmlns="http://www.w3.org/2000/svg">
<g id="Logo" clip-path="url(#clip0_212_1597)">
<path id="Vector" d="M15.124 1.3715C15.124 1.38279 15.124 1.3969 15.121 1.40537C15.1063 1.51544 15.1063 1.62551 15.1151 1.7384C15.121 1.76662 15.1269 1.79485 15.1504 1.81743C15.1887 1.85976 15.2475 1.85129 15.271 1.80049C15.2828 1.77509 15.2828 1.74969 15.2769 1.72429C15.2475 1.61704 15.2416 1.50415 15.2387 1.39408C15.2387 1.38843 15.2387 1.37996 15.2387 1.3715C15.271 1.36868 15.3004 1.36585 15.3269 1.36585C15.3475 1.36303 15.3651 1.36021 15.3798 1.35174C15.4239 1.32916 15.4239 1.28118 15.3769 1.25861C15.3592 1.25014 15.3357 1.24731 15.3151 1.24731C15.2416 1.25014 15.1681 1.25014 15.0946 1.25014C15.0681 1.25014 15.0416 1.25296 15.0152 1.25578C15.0005 1.25861 14.9828 1.25861 14.9711 1.26707C14.9505 1.27554 14.9387 1.28965 14.9387 1.30941C14.9417 1.32916 14.9505 1.34045 14.9711 1.34892C14.9828 1.35739 14.9975 1.36021 15.0122 1.36021C15.0475 1.36303 15.0858 1.36868 15.124 1.3715ZM15.9326 1.50133C15.9326 1.50415 15.9356 1.50697 15.9356 1.50697C15.9473 1.58317 15.9591 1.65655 15.9679 1.72993C15.9709 1.75533 15.9738 1.77791 15.9915 1.79767C16.0297 1.84565 16.0885 1.84 16.115 1.7892C16.1267 1.7638 16.1297 1.7384 16.1238 1.71018C16.1061 1.62551 16.0973 1.54084 16.0797 1.45899C16.0679 1.40819 16.0532 1.36021 16.0385 1.31505C16.0297 1.28683 16.0091 1.26707 15.9738 1.26425C15.9385 1.25861 15.9121 1.27554 15.8974 1.30094C15.8797 1.32352 15.865 1.3461 15.8532 1.3715C15.8327 1.41665 15.815 1.46181 15.7915 1.50415C15.7885 1.51544 15.7856 1.5239 15.7797 1.53237C15.7768 1.52673 15.7739 1.5239 15.7739 1.5239C15.7356 1.45335 15.7003 1.38279 15.6621 1.31505C15.6562 1.30941 15.6533 1.30376 15.6503 1.29812C15.6327 1.27272 15.6121 1.25861 15.5798 1.25861C15.5504 1.26143 15.5268 1.27836 15.5121 1.30376C15.5062 1.31505 15.5062 1.32352 15.5033 1.33481C15.4915 1.42512 15.4768 1.51544 15.4651 1.60575C15.4592 1.65655 15.4563 1.70735 15.4563 1.75816C15.4533 1.76945 15.4563 1.78356 15.4621 1.79485C15.468 1.81742 15.4857 1.83154 15.5092 1.83436C15.5386 1.83718 15.5592 1.82872 15.568 1.80614C15.5768 1.7892 15.5798 1.77509 15.5827 1.76098C15.5945 1.71018 15.6033 1.6622 15.6121 1.61422C15.618 1.586 15.6209 1.56342 15.6298 1.53237C15.6356 1.54366 15.6415 1.55213 15.6474 1.56059C15.6739 1.59446 15.7003 1.62833 15.7327 1.65655C15.765 1.67913 15.7915 1.67631 15.8179 1.65091C15.8238 1.64526 15.8268 1.64244 15.8327 1.6368C15.8591 1.59728 15.8915 1.55777 15.9179 1.51826C15.9238 1.51261 15.9268 1.50697 15.9326 1.50133Z" fill="#3A3B7B"/>
<path id="Vector_2" d="M9.15708 1.42703C9.13664 1.48067 9.13274 1.51931 9.14217 1.55143C9.1526 1.5951 9.17965 1.6094 9.21637 1.59829C9.56177 1.51632 10.3192 1.749 10.5996 1.81385C10.6657 1.82747 10.7195 1.74553 10.6744 1.67207C10.6085 1.60093 9.85146 1.29634 9.5626 1.27974C9.44937 1.2736 9.24695 1.24573 9.15708 1.42703Z" fill="#3A3B7B"/>
<path id="Vector_3" d="M12.1171 0.441057C12.1539 0.461449 12.1745 0.480901 12.1847 0.502635C12.1998 0.531145 12.1918 0.55087 12.1664 0.560935C11.9381 0.667883 11.6343 1.12831 11.5116 1.28711C11.4819 1.32364 11.4133 1.30241 11.403 1.24234C11.4051 1.17442 11.6744 0.674746 11.8247 0.538653C11.8838 0.485518 11.9814 0.38126 12.1171 0.441057Z" fill="#3A3B7B"/>
<path id="Vector_4" d="M10.2989 0.214359C10.3431 0.182369 10.3891 0.171159 10.4125 0.191948C10.757 0.474699 10.9397 0.92246 11.0528 1.33238C11.0571 1.34193 11.0573 1.35563 11.0539 1.36993C11.0525 1.38215 11.0432 1.39505 11.0284 1.40504C11.0127 1.41607 10.9991 1.41943 10.9927 1.40992C10.8417 1.21283 9.9794 0.445987 10.2989 0.214359Z" fill="#3A3B7B"/>
<path id="Vector_5" d="M3.00418 5.11655C3.08674 5.05755 3.1765 5.00844 3.27148 4.97033C3.37085 4.94306 3.47677 4.94757 3.57323 4.98322C3.66967 5.01887 3.75142 5.08367 3.80607 5.16786C3.85497 5.25183 3.87409 5.34879 3.86059 5.44411C3.8471 5.53942 3.8017 5.62794 3.73122 5.69635C3.67659 5.75181 3.61457 5.80011 3.5468 5.84002C3.24476 6.02731 2.94003 6.20431 2.63531 6.3916C2.57296 6.43847 2.50681 6.48052 2.4375 6.51731C2.33208 6.56777 2.21161 6.58128 2.0969 6.55551C1.9822 6.52977 1.88049 6.46633 1.80935 6.37622C1.75617 6.3124 1.71129 6.24262 1.6757 6.1684C1.38702 5.58604 1.08764 5.00624 0.809651 4.4136C0.681346 4.15707 0.5771 3.86203 0.475527 3.57727C0.431581 3.49453 0.423 3.39861 0.451609 3.30988C0.480219 3.22116 0.543763 3.14665 0.628723 3.1022C0.713685 3.05775 0.813359 3.04688 0.90655 3.07188C0.999741 3.09688 1.0791 3.15578 1.12774 3.23606C1.27724 3.42675 1.40959 3.62931 1.52334 3.84152C1.81202 4.35461 2.08734 4.8677 2.36533 5.3654C2.38152 5.39291 2.39937 5.41945 2.41879 5.44493C2.62803 5.36049 2.82483 5.2501 3.00418 5.11655Z" fill="#3A3B7B"/>
<path id="Vector_6" d="M5.98895 4.93756C5.32874 5.67897 4.22211 5.49168 3.66613 4.53733C3.27052 3.86005 3.20103 2.7415 4.06174 2.03599C4.24554 1.88829 4.46531 1.78767 4.70057 1.74353C4.98903 1.70384 5.28319 1.75268 5.54098 1.88308C5.79877 2.01347 6.00702 2.21874 6.13599 2.46956C6.60642 3.29052 6.5396 4.33722 5.98895 4.93756ZM5.72166 3.20842C5.65152 3.00668 5.51081 2.83445 5.32338 2.72097C5.21733 2.64842 5.08845 2.61314 4.95848 2.62109C4.82848 2.62903 4.70533 2.67971 4.6097 2.76458C4.22747 3.09041 4.14726 3.86262 4.42525 4.32184C4.46069 4.39672 4.51272 4.46327 4.57775 4.51683C4.64278 4.57039 4.71922 4.60966 4.80172 4.63189C4.88421 4.65414 4.97076 4.6588 5.05534 4.64558C5.13992 4.63233 5.22044 4.60152 5.29132 4.55529C5.49852 4.4011 5.65053 4.1888 5.72621 3.94789C5.80191 3.70696 5.79752 3.44939 5.71365 3.21099L5.72166 3.20842Z" fill="#3A3B7B"/>
<path id="Vector_7" d="M8.68335 3.53174C8.61577 3.54569 8.54594 3.54652 8.47799 3.53418C8.41007 3.52183 8.34538 3.49659 8.28776 3.45991C8.23735 3.43223 8.19395 3.39418 8.16068 3.34848C8.12744 3.30278 8.10516 3.25058 8.09545 3.19561C8.08572 3.14067 8.08884 3.08433 8.10451 3.03066C8.1202 2.97699 8.14811 2.92733 8.18619 2.88523C8.25255 2.80065 8.34674 2.74009 8.45349 2.71335C8.7322 2.63572 9.01911 2.58839 9.30885 2.57226C9.37251 2.56515 9.437 2.57032 9.49854 2.58746C9.56009 2.60463 9.61744 2.63339 9.66725 2.67212C9.71703 2.71082 9.75828 2.75871 9.78854 2.81293C9.81878 2.86715 9.83746 2.92662 9.84344 2.98786C9.92697 3.28867 9.93611 3.60407 9.87016 3.90888C9.62961 4.89401 8.80097 5.23264 7.87077 4.91709C7.60966 4.83273 7.38072 4.67553 7.21322 4.46558C6.98981 4.21274 6.83142 3.9131 6.75078 3.59075C6.68546 3.3037 6.69261 3.00584 6.77167 2.722C6.85072 2.43816 6.99936 2.17658 7.20519 1.9591C7.40053 1.72274 7.65407 1.53671 7.94295 1.41779C8.12549 1.32122 8.3391 1.29376 8.5417 1.34082C8.58766 1.35303 8.62937 1.37682 8.66253 1.40972C8.69568 1.44262 8.71906 1.48343 8.73025 1.52793C8.74144 1.57242 8.74 1.61898 8.72612 1.66277C8.71223 1.70656 8.6864 1.74598 8.6513 1.77696C8.58454 1.83495 8.51202 1.88651 8.43477 1.93088C8.19713 2.07613 7.99034 2.26329 7.82533 2.48246C7.71717 2.62428 7.64268 2.78714 7.60712 2.95954C7.57155 3.13195 7.57579 3.30975 7.61952 3.48044C7.68014 3.71317 7.81466 3.92206 8.00442 4.07818C8.59248 4.59129 9.35695 4.09614 9.22331 3.39577C9.02819 3.44196 8.85711 3.4907 8.68335 3.53174Z" fill="#3A3B7B"/>
<path id="Vector_8" d="M12.2759 4.97867C11.4072 5.49177 10.4182 4.97867 10.2017 3.90118C10.044 3.13154 10.3433 2.05403 11.3912 1.64355C11.6141 1.5581 11.8559 1.52809 12.0941 1.55633C12.3804 1.60662 12.643 1.74187 12.8449 1.94301C13.0467 2.14414 13.1778 2.40102 13.2195 2.67744C13.3959 3.59331 12.9949 4.57076 12.2759 4.97867ZM12.578 3.2521C12.5777 3.03898 12.4991 2.83275 12.3561 2.66974C12.2796 2.56892 12.1691 2.49667 12.0433 2.46532C11.9176 2.43398 11.7844 2.44547 11.6665 2.49786C11.196 2.69282 10.8646 3.4009 10.9849 3.92171C10.994 4.00343 11.0217 4.08225 11.0659 4.15265C11.1102 4.22304 11.1699 4.28331 11.2409 4.32926C11.3119 4.37518 11.3926 4.40568 11.4771 4.4186C11.5617 4.43149 11.6483 4.42652 11.7306 4.40401C11.9793 4.32063 12.1946 4.16482 12.3465 3.9583C12.4984 3.75179 12.5793 3.50489 12.578 3.2521Z" fill="#3A3B7B"/>
<path id="Vector_9" d="M14.098 5.19412C14.0849 5.28802 14.0335 5.37307 13.955 5.43057C13.8765 5.48804 13.7775 5.51328 13.6797 5.50069C13.5819 5.48811 13.4932 5.43873 13.4333 5.36343C13.3734 5.28815 13.3472 5.19309 13.3603 5.09919C13.3734 5.0053 13.4248 4.92025 13.5033 4.86275C13.5817 4.80525 13.6808 4.78004 13.7786 4.79262C13.8764 4.80521 13.965 4.85457 14.0249 4.92987C14.0848 5.00517 14.1111 5.10023 14.098 5.19412ZM13.8654 1.73328C13.9163 1.65876 13.9909 1.60202 14.0781 1.5715C14.1653 1.54099 14.2604 1.53834 14.3493 1.56396C14.4396 1.58566 14.5195 1.6365 14.5754 1.70795C14.6314 1.77941 14.6601 1.86715 14.6567 1.95648C14.6449 2.09977 14.6226 2.24208 14.5898 2.38234C14.5016 2.85697 14.4161 3.33157 14.3225 3.80106C14.2798 3.98835 14.2236 4.16793 14.1622 4.35776C14.1408 4.41711 14.105 4.47074 14.0579 4.51426C14.0286 4.54701 13.9912 4.57211 13.9491 4.58727C13.907 4.60246 13.8616 4.60719 13.8171 4.60105C13.7726 4.59491 13.7304 4.5781 13.6945 4.55218C13.6586 4.52623 13.63 4.49202 13.6115 4.45269C13.5797 4.38214 13.5625 4.30634 13.5607 4.2295C13.5607 3.91137 13.5607 3.5907 13.5821 3.27C13.6185 2.81234 13.6899 2.35787 13.796 1.9103C13.8084 1.85034 13.832 1.793 13.8654 1.74098V1.73328Z" fill="#3A3B7B"/>
<path id="Vector_10" fill-rule="evenodd" clip-rule="evenodd" d="M1.87486 7.25566C1.8433 7.32328 1.83465 7.39867 1.85007 7.47122C1.86033 7.56685 1.88286 7.66092 1.91716 7.75127C1.95998 7.86191 2.0079 7.97132 2.06698 8.10617C2.08057 8.13719 2.09477 8.16958 2.10962 8.20367C2.1893 8.38635 2.28927 8.61982 2.42261 8.95771C2.46036 9.05369 2.49387 9.15047 2.52762 9.24791C2.54126 9.28727 2.55494 9.32677 2.56894 9.36636C2.61915 9.5071 2.70553 9.63354 2.82004 9.73375C2.86866 9.78883 2.93315 9.82897 3.00547 9.84904C3.0792 9.8695 3.15761 9.8682 3.23056 9.84532C3.3035 9.82241 3.36757 9.77897 3.41444 9.72064C3.4604 9.66345 3.48772 9.59453 3.49304 9.52253C3.52285 9.38227 3.51267 9.23684 3.46353 9.10162C3.38555 8.8771 3.29671 8.65226 3.19426 8.43234L3.19379 8.43137C3.02526 8.08731 2.85396 7.74562 2.67454 7.40379L2.6732 7.40139C2.62068 7.31234 2.55242 7.23273 2.47149 7.16614C2.41896 7.10671 2.34649 7.06661 2.26646 7.05279C2.18473 7.03869 2.10043 7.0529 2.02863 7.09293C1.96069 7.13016 1.90684 7.18713 1.87486 7.25566Z" fill="#3A3B7B"/>
<path id="Vector_11" fill-rule="evenodd" clip-rule="evenodd" d="M4.44887 6.40848C4.18462 6.3428 3.90865 6.33323 3.64019 6.38045C3.43225 6.4001 3.22774 6.44613 3.08573 6.53732C3.0135 6.58373 2.95511 6.64332 2.92263 6.71906C2.88996 6.79522 2.8858 6.88231 2.91256 6.97935C2.96143 7.15711 3.02489 7.32994 3.08813 7.50221L3.09837 7.53011L3.09862 7.53073C3.28903 8.03121 3.48125 8.52999 3.67522 9.02706C3.69784 9.1054 3.72983 9.18096 3.77054 9.25223L3.7713 9.25356C3.82508 9.3421 3.89406 9.4213 3.97532 9.48782C4.01596 9.52439 4.06622 9.5497 4.12071 9.56101C4.17574 9.57241 4.23297 9.5691 4.28617 9.55141C4.33939 9.53374 4.38651 9.50239 4.42242 9.46075C4.45775 9.4198 4.48088 9.37047 4.48938 9.31796C4.52444 9.17533 4.51321 9.0258 4.45716 8.88946C4.43968 8.84358 4.42596 8.79669 4.4115 8.74733C4.40668 8.73087 4.4018 8.71413 4.39664 8.69707C4.84065 8.5305 5.31308 8.30651 5.47921 7.78544C5.54427 7.60537 5.54969 7.41039 5.49472 7.22722C5.43971 7.04385 5.32685 6.88132 5.17168 6.76201C4.96049 6.595 4.71379 6.47432 4.44887 6.40848ZM3.7164 7.04761C3.72515 7.04519 3.73396 7.04295 3.74279 7.04086C4.03185 6.99724 4.3276 7.05536 4.57557 7.20446C4.68485 7.27741 4.72962 7.35845 4.73731 7.43644C4.74524 7.51674 4.71482 7.60374 4.65371 7.68738C4.53825 7.84538 4.32753 7.97184 4.13719 7.99541C3.99843 7.6887 3.85752 7.36959 3.7164 7.04761Z" fill="#3A3B7B"/>
<path id="Vector_12" d="M6.21058 5.84705C6.52527 5.70756 6.91507 5.68347 7.2201 5.78154C7.29692 5.80302 7.36356 5.84947 7.40864 5.91295C7.45343 5.97604 7.4741 6.05207 7.4672 6.12807C7.46675 6.17741 7.45413 6.22595 7.43039 6.26974C7.40622 6.31432 7.37123 6.35265 7.32837 6.38153C7.28551 6.41037 7.23604 6.42892 7.18414 6.43555C7.13222 6.44219 7.07943 6.43674 7.03018 6.41964L7.02644 6.41834L7.02292 6.41656C6.99772 6.4039 6.97096 6.39438 6.94327 6.38817L6.94152 6.3878C6.72695 6.33309 6.52455 6.42373 6.45062 6.5351C6.41536 6.58819 6.41099 6.6418 6.44035 6.69056C6.4718 6.74278 6.54894 6.80138 6.70503 6.84314C6.74796 6.85445 6.79196 6.86537 6.83659 6.87646C6.96002 6.90713 7.08829 6.939 7.21232 6.98316L7.21279 6.98334C7.785 7.19229 7.99807 7.62506 7.92513 8.03211C7.85297 8.43464 7.50271 8.80098 6.97598 8.88739C6.78432 8.92817 6.58485 8.92022 6.39734 8.86435C6.20935 8.80831 6.0399 8.70605 5.90583 8.56768L5.90233 8.56407C5.86001 8.51195 5.83154 8.45071 5.81892 8.38573C5.8073 8.32708 5.81342 8.26648 5.83651 8.21105C5.85947 8.15595 5.89829 8.10827 5.94839 8.07352C6.00132 8.03413 6.06512 8.0105 6.1319 8.00557C6.19845 8.00066 6.26505 8.01455 6.32349 8.04549C6.38187 8.07255 6.43616 8.10708 6.48489 8.14814L6.48581 8.14889C6.57203 8.22456 6.67633 8.24428 6.77636 8.22601C6.87784 8.20749 6.97327 8.14986 7.03464 8.07339C7.09562 7.99741 7.1201 7.90714 7.09104 7.81952C7.06181 7.73126 6.97392 7.63237 6.7808 7.5497C6.73031 7.52912 6.67797 7.51253 6.62352 7.49638C6.60884 7.49202 6.59391 7.48769 6.5788 7.48329C6.53854 7.47156 6.49711 7.45948 6.45649 7.44616C6.42852 7.43701 6.40076 7.42834 6.37328 7.41974C6.29816 7.39626 6.22493 7.37337 6.15445 7.34267C6.00105 7.29255 5.86852 7.1963 5.77659 7.06816C5.68428 6.93952 5.63783 6.78569 5.64415 6.62963C5.64465 6.24932 5.89421 5.98731 6.21058 5.84705Z" fill="#3A3B7B"/>
<path id="Vector_13" d="M10.2002 5.80657C10.1392 5.77797 10.0717 5.76439 10.0039 5.76705C9.93601 5.76974 9.86993 5.78857 9.81158 5.82191C9.75358 5.85501 9.70503 5.90135 9.67024 5.95682C9.63834 6.00354 9.61626 6.05578 9.60525 6.11064C9.59425 6.16545 9.59451 6.22178 9.60601 6.27646C9.61738 6.34675 9.62998 6.41509 9.64242 6.48249C9.66302 6.59404 9.68306 6.70307 9.69629 6.81424L9.69678 6.81706C9.72688 6.9914 9.74264 7.16773 9.74406 7.34442L9.74419 7.34693C9.75448 7.53776 9.68674 7.72487 9.55549 7.86856L9.5534 7.87111C9.5107 7.92364 9.4536 7.96373 9.38848 7.9869C9.32338 8.01007 9.25286 8.0154 9.18478 8.00228C9.1167 7.98917 9.05378 7.95814 9.00303 7.91266C8.95227 7.86717 8.91567 7.80886 8.8974 7.74458C8.85839 7.6091 8.83582 7.46974 8.83008 7.32931L8.8967 6.3113C8.89769 6.29801 8.89881 6.28436 8.89995 6.27059C8.90249 6.23967 8.90509 6.20818 8.90616 6.17881C8.90773 6.13559 8.90639 6.09114 8.8959 6.04907C8.88516 6.00607 8.86474 5.96516 8.82851 5.93033C8.79264 5.89585 8.74422 5.87041 8.6833 5.85309C8.57312 5.82248 8.47995 5.82345 8.40232 5.85507C8.32465 5.88669 8.27143 5.9454 8.23377 6.01322C8.1964 6.08047 8.1724 6.16008 8.15424 6.23983C8.14077 6.299 8.12994 6.36112 8.11965 6.42024C8.11608 6.44062 8.11261 6.46062 8.10909 6.48005L8.109 6.48062C8.05394 6.80489 8.03756 7.13412 8.06015 7.46195C8.06437 7.63911 8.10286 7.81399 8.1737 7.97764C8.25361 8.18879 8.39836 8.37174 8.58883 8.50234C8.77971 8.6332 9.00749 8.70531 9.24201 8.70912C9.47653 8.71293 9.70673 8.64826 9.90212 8.52369C10.0972 8.39929 10.2484 8.22101 10.3357 8.01243C10.4578 7.74672 10.5151 7.45775 10.5033 7.16755C10.4961 6.95569 10.4841 6.7422 10.4721 6.52978C10.4663 6.42559 10.4604 6.32162 10.4552 6.21828C10.4525 6.11466 10.4169 6.0143 10.3531 5.93066C10.3136 5.87778 10.2611 5.83513 10.2002 5.80657Z" fill="#3A3B7B"/>
<path id="Vector_14" d="M12.3598 7.40282C12.3536 7.41037 12.3471 7.41818 12.3403 7.4263C12.2907 7.1515 12.2447 6.87679 12.1986 6.60167C12.1821 6.50295 12.1655 6.40382 12.1488 6.30497L12.1469 6.29395L12.1408 6.28442C12.1293 6.26649 12.1282 6.24891 12.1282 6.21141V6.20708L12.1275 6.20278C12.115 6.12535 12.0785 6.05328 12.0228 5.99603C11.9672 5.93892 11.895 5.89918 11.8155 5.88193C11.7362 5.86316 11.6529 5.8673 11.5761 5.89384C11.4994 5.92031 11.4326 5.96788 11.3839 6.0306C11.3435 6.07872 11.3103 6.1321 11.2855 6.18914C11.2291 6.31202 11.1722 6.4352 11.1152 6.55871L11.1142 6.56085C10.9719 6.8692 10.8285 7.17962 10.6894 7.49249L10.6889 7.4935C10.6035 7.69636 10.533 7.91012 10.4627 8.12321C10.4487 8.16575 10.4346 8.20826 10.4205 8.25066C10.3951 8.31791 10.384 8.38934 10.3878 8.46074C10.3832 8.52467 10.3992 8.58844 10.4335 8.64343C10.4686 8.69954 10.5211 8.74368 10.5837 8.76967C10.65 8.79757 10.7241 8.80349 10.7944 8.7865C10.8644 8.76954 10.9267 8.73072 10.9713 8.67615C11.0282 8.60893 11.0772 8.53561 11.1171 8.45793C11.235 8.22648 11.3477 7.99222 11.4598 7.75897C11.5032 7.66875 11.5454 7.58795 11.5934 7.49995C11.5967 7.5108 11.6 7.52138 11.6035 7.53199C11.6538 7.74444 11.7386 7.94794 11.855 8.13503C11.877 8.17466 11.9076 8.2093 11.9449 8.23656C11.9825 8.26415 12.026 8.28352 12.0722 8.29335C12.1185 8.30319 12.1664 8.30323 12.2127 8.29349C12.2589 8.28376 12.3025 8.26437 12.3402 8.23691L12.4147 8.18333L12.9936 7.71535L12.9594 7.92473C12.9124 8.21253 12.8658 8.49793 12.8162 8.7834C12.7838 8.90993 12.7838 9.04209 12.8164 9.16858C12.8304 9.23976 12.8663 9.30529 12.9194 9.35683C12.9729 9.40878 13.0415 9.44407 13.1162 9.45816C13.1908 9.47222 13.2682 9.46443 13.3382 9.43576C13.4072 9.40753 13.4659 9.3603 13.5069 9.30012C13.6024 9.18646 13.6618 9.04887 13.6781 8.9037C13.7027 8.69871 13.7304 8.49091 13.7582 8.28319C13.7902 8.04375 13.8222 7.80438 13.8492 7.56961L13.8493 7.56889C13.8753 7.31189 13.8879 7.05384 13.887 6.79564C13.8927 6.71404 13.8715 6.63276 13.8264 6.56329C13.7812 6.49358 13.7141 6.43938 13.6349 6.40838C13.5525 6.37242 13.4603 6.3628 13.3718 6.38098C13.2838 6.39902 13.2042 6.44352 13.1445 6.50797C13.0377 6.60274 12.9376 6.70416 12.8446 6.81157L12.844 6.8123C12.7426 6.93361 12.6418 7.0573 12.5417 7.18019C12.4809 7.2549 12.4202 7.32943 12.3598 7.40282Z" fill="#3A3B7B"/>
</g>
<defs>
<clipPath id="clip0_212_1597">
<rect width="15.6917" height="9.68213" fill="white" transform="translate(0.434998 0.181396)"/>
</clipPath>
</defs>
</svg>
