<svg width="14" height="10" viewBox="0 0 14 10" fill="none" xmlns="http://www.w3.org/2000/svg">
<g id="Logo" clip-path="url(#clip0_212_1590)">
<path id="Vector" fill-rule="evenodd" clip-rule="evenodd" d="M3.37811 1.55513L0.0441895 4.85553C0.711034 5.51568 1.4728 6.07204 2.30334 6.5073C2.53291 7.11013 2.89275 7.67547 3.38285 8.16064C5.22677 9.98599 8.21631 9.98599 10.0602 8.16064C10.5503 7.67547 10.9101 7.11013 11.1397 6.50727C11.9702 6.07204 12.732 5.51568 13.3989 4.85553L10.0676 1.55781C10.0652 1.55535 10.0627 1.55288 10.0602 1.55042C8.21631 -0.274943 5.22677 -0.274943 3.38285 1.55042C3.38128 1.55199 3.37969 1.55356 3.37811 1.55513ZM9.74118 7.10275C8.76962 7.42734 7.74973 7.59357 6.72152 7.59357C5.69331 7.59357 4.67345 7.42734 3.7019 7.10275C3.80717 7.241 3.92338 7.37368 4.05059 7.49962C5.52571 8.95992 7.91733 8.95992 9.39245 7.49962C9.51966 7.37368 9.63591 7.241 9.74118 7.10275ZM4.11906 2.14533C4.36956 2.30916 4.63592 2.44936 4.91463 2.56365C5.48748 2.79855 6.10146 2.91945 6.72152 2.91945C7.34158 2.91945 7.95556 2.79855 8.52841 2.56365C8.80712 2.44936 9.07348 2.30916 9.32401 2.14533C7.86728 0.773184 5.57576 0.773188 4.11906 2.14533Z" fill="#3B4158"/>
</g>
<defs>
<clipPath id="clip0_212_1590">
<rect width="13.3547" height="9.34826" fill="white" transform="translate(0.0441895 0.181396)"/>
</clipPath>
</defs>
</svg>
