<svg width="19" height="8" viewBox="0 0 19 8" fill="none" xmlns="http://www.w3.org/2000/svg">
<g id="Logo" clip-path="url(#clip0_212_1617)">
<path id="Vector" d="M4.98427 0.516846C4.30628 0.516846 3.65606 0.786176 3.17665 1.26559L1.61205 2.83018C1.13264 3.30959 0.863312 3.95981 0.863312 4.6378C0.863312 6.04966 2.00784 7.19418 3.41968 7.19418C4.09768 7.19418 4.74789 6.92484 5.2273 6.44543L6.30954 5.36319C6.30954 5.36316 6.30957 5.36321 6.30954 5.36319L9.46282 2.20991C9.69179 1.98094 10.0023 1.85231 10.3261 1.85231C10.8682 1.85231 11.3278 2.20563 11.4872 2.69456L12.4824 1.69939C12.0284 0.988341 11.2323 0.516846 10.3261 0.516846C9.64814 0.516846 8.99793 0.786176 8.51852 1.26559L4.283 5.50112C4.05403 5.73008 3.74349 5.85871 3.41968 5.85871C2.74539 5.85871 2.19878 5.3121 2.19878 4.6378C2.19878 4.314 2.32741 4.00346 2.55637 3.77449L4.12096 2.20991C4.34992 1.98094 4.66047 1.85231 4.98427 1.85231C5.5264 1.85231 5.98598 2.20565 6.14533 2.69459L7.14051 1.69942C6.68652 0.988354 5.89047 0.516846 4.98427 0.516846Z" fill="#394149"/>
<path id="Vector_2" d="M9.6249 5.50112C9.39593 5.73008 9.08539 5.85871 8.76159 5.85871C8.21954 5.85871 7.75999 5.50548 7.6006 5.01663L6.60545 6.01178C7.05947 6.72273 7.85547 7.19418 8.76159 7.19418C9.43958 7.19418 10.0898 6.92484 10.5692 6.44543L14.8047 2.20991C15.0337 1.98094 15.3442 1.85231 15.668 1.85231C16.3423 1.85231 16.8889 2.39893 16.8889 3.07322C16.8889 3.39702 16.7603 3.70756 16.5314 3.93653L14.9668 5.50112C14.7378 5.73008 14.4273 5.85871 14.1034 5.85871C13.5614 5.85871 13.1018 5.50541 12.9424 5.01652L11.9473 6.01169C12.4013 6.72271 13.1973 7.19418 14.1034 7.19418C14.7814 7.19418 15.4317 6.92484 15.9111 6.44543L17.4757 4.88084C17.9551 4.40143 18.2244 3.75121 18.2244 3.07322C18.2244 1.66137 17.0799 0.516846 15.668 0.516846C14.99 0.516846 14.3398 0.786176 13.8604 1.26559L9.6249 5.50112Z" fill="#394149"/>
</g>
<defs>
<clipPath id="clip0_212_1617">
<rect width="17.3611" height="6.67733" fill="white" transform="translate(0.863312 0.516846)"/>
</clipPath>
</defs>
</svg>
