<svg width="20" height="11" viewBox="0 0 20 11" fill="none" xmlns="http://www.w3.org/2000/svg">
<g id="Logo" clip-path="url(#clip0_212_1593)">
<path id="Vector" d="M19.0821 4.40977C19.084 4.39585 19.084 4.38178 19.0821 4.36786C19.0839 4.35651 19.0839 4.34494 19.0821 4.33358L18.9461 3.35446C18.9265 3.23732 18.874 3.12784 18.7945 3.03825L18.7712 3.01158L18.7285 2.96967L16.3735 0.980972L16.4396 1.04574C16.3855 0.982348 16.3177 0.93164 16.241 0.897354C16.1644 0.863069 16.0808 0.846078 15.9966 0.847634H15.2815C15.1653 0.845375 15.0516 0.881617 14.959 0.950499C14.8617 0.882032 14.7446 0.845975 14.6248 0.847634H13.9097C13.816 0.846142 13.7235 0.86896 13.6416 0.913783C13.5597 0.958606 13.4913 1.02384 13.4434 1.10289C13.3696 1.21578 13.3418 1.35181 13.3657 1.48387L13.4551 2.10105C13.3959 2.06814 13.3288 2.05106 13.2608 2.05152H9.79829C9.67406 2.05229 9.55269 2.08799 9.44853 2.15438C9.34782 2.21619 9.26697 2.30468 9.21538 2.40964L8.94723 2.18486C8.8417 2.08913 8.70239 2.03724 8.55863 2.04009H3.12591C3.00124 2.04232 2.87934 2.07646 2.77228 2.13915C2.62583 2.22319 2.51849 2.35983 2.47305 2.52012L0.747635 8.17764C0.715396 8.27086 0.712224 8.3714 0.738526 8.4664C0.764829 8.56138 0.819413 8.64656 0.895307 8.71102C0.915082 8.72744 0.935847 8.74272 0.957485 8.75672C0.957485 8.75672 0.922505 8.73385 0.903075 8.71482L3.25804 10.7073C3.35766 10.7972 3.48791 10.8475 3.62331 10.8483H9.0988C9.22384 10.8451 9.34583 10.8096 9.45243 10.7454C9.51272 10.7131 9.56666 10.6705 9.61175 10.6197L9.63119 10.593L9.66228 10.5549L9.68559 10.513L9.94208 10.7302C10.0403 10.8165 10.1677 10.864 10.2996 10.8635H15.7867C15.9116 10.8594 16.0334 10.824 16.1403 10.7607C16.1993 10.7264 16.2529 10.684 16.2997 10.6349L16.3191 10.6083L16.3502 10.5702C16.3667 10.5461 16.381 10.5206 16.3929 10.494C16.4056 10.4709 16.416 10.4466 16.424 10.4216L17.9979 5.25555V5.20983C17.9998 5.1921 17.9998 5.17422 17.9979 5.15649V5.12221C17.9998 5.11084 17.9998 5.09927 17.9979 5.08791C17.9996 5.06382 17.9996 5.03963 17.9979 5.01552H18.5031C18.547 5.01947 18.5912 5.01947 18.6352 5.01552H18.6702C18.6986 5.0072 18.726 4.99568 18.7518 4.98124H18.7907L18.8606 4.9279L18.8917 4.90504L18.9461 4.83645V4.81362L18.985 4.74884C18.9828 4.73624 18.9828 4.72335 18.985 4.71075C18.9829 4.70457 18.9829 4.69788 18.985 4.6917C18.9932 4.66936 18.9997 4.64643 19.0044 4.62311C19.0026 4.6156 19.0026 4.60776 19.0044 4.60025C19.0025 4.58891 19.0025 4.57732 19.0044 4.56597C19.0044 4.56597 19.0821 4.41739 19.0821 4.40977Z" fill="black"/>
<path id="Vector_2" d="M8.71795 2.4744C8.73858 2.49269 8.75299 2.51674 8.75924 2.54331C8.76551 2.56988 8.7633 2.59768 8.75294 2.62298L7.03142 8.27669C7.00974 8.33841 6.96539 8.39002 6.90706 8.42147C6.8596 8.45259 6.80466 8.47097 6.74771 8.4748H1.27614C1.22941 8.4726 1.18515 8.45362 1.15179 8.42147C1.13194 8.40347 1.11801 8.38008 1.11178 8.35431C1.10555 8.32852 1.10731 8.3015 1.11681 8.27669L2.84223 2.62298C2.86211 2.56048 2.90506 2.50749 2.96269 2.4744C3.01094 2.44551 3.06561 2.42852 3.12202 2.42488H8.59359C8.63996 2.42531 8.68441 2.44302 8.71795 2.4744ZM5.86169 7.13757L6.8915 3.7621H4.00805L2.98212 7.13757H5.86169ZM13.9408 2.53155C13.9595 2.55282 13.9828 2.56968 14.0091 2.5809C14.0353 2.59211 14.0638 2.59738 14.0924 2.59631H14.8035C14.8306 2.59657 14.8573 2.59006 14.8811 2.5774C14.9049 2.56473 14.925 2.54633 14.9396 2.52393C14.9522 2.50643 14.9611 2.48662 14.9658 2.46568C14.9704 2.44474 14.9708 2.42309 14.9667 2.40202L14.8269 1.39624C14.8135 1.34969 14.7896 1.3067 14.7569 1.27051C14.7382 1.24924 14.7149 1.23238 14.6887 1.22117C14.6624 1.20995 14.6339 1.20468 14.6054 1.20575H13.8942C13.8671 1.20549 13.8404 1.212 13.8166 1.22467C13.7928 1.23733 13.7727 1.25573 13.7582 1.27814C13.731 1.33147 13.7193 1.36576 13.731 1.39624L13.8748 2.40202C13.8821 2.45099 13.9053 2.49637 13.9408 2.53155ZM16.1986 1.38862C16.1853 1.34207 16.1614 1.29908 16.1287 1.26289C16.1108 1.2417 16.0882 1.22484 16.0626 1.21361C16.037 1.20238 16.009 1.19708 15.981 1.19813H15.266C15.2393 1.19738 15.213 1.20372 15.1897 1.21646C15.1665 1.22921 15.1472 1.24789 15.1339 1.27051C15.108 1.30431 15.0968 1.34677 15.1028 1.38862L15.2465 2.3944C15.2556 2.44285 15.2785 2.48779 15.3126 2.52393C15.3316 2.54478 15.355 2.56137 15.3812 2.57254C15.4073 2.58372 15.4356 2.58923 15.4642 2.58869H16.1792C16.2058 2.58904 16.232 2.58253 16.2551 2.56983C16.2783 2.55712 16.2977 2.53867 16.3113 2.51631C16.3249 2.49927 16.3343 2.47946 16.339 2.45837C16.3437 2.43728 16.3436 2.41542 16.3385 2.3944L16.1986 1.38862ZM13.3152 2.91253L13.2452 2.41726H9.79829C9.74417 2.42018 9.69181 2.43728 9.64672 2.46678C9.6181 2.48208 9.59319 2.50329 9.57373 2.52894C9.55429 2.5546 9.54075 2.58408 9.53404 2.61536L9.24646 3.56018C9.23499 3.58379 9.23106 3.61029 9.23522 3.63613C9.2394 3.66197 9.25144 3.68596 9.26977 3.70496C9.30255 3.73516 9.34531 3.75276 9.39025 3.75449H13.5794L12.5496 7.12996H8.37209C8.31823 7.13116 8.26577 7.14698 8.22055 7.17566C8.16559 7.20988 8.12545 7.26279 8.10785 7.32424L7.81639 8.26908C7.80688 8.29331 7.80438 8.31966 7.80918 8.3452C7.814 8.37076 7.82588 8.3945 7.84358 8.41383C7.87533 8.44606 7.91843 8.46514 7.96406 8.46717H13.4512C13.5079 8.46238 13.5626 8.44408 13.6105 8.41383C13.6679 8.38223 13.7109 8.33052 13.731 8.26908L15.3087 3.10302H13.5328C13.5046 3.10356 13.4766 3.09843 13.4506 3.08795C13.4245 3.07746 13.4009 3.06184 13.3812 3.04206C13.3491 3.00751 13.3264 2.96558 13.3152 2.92015V2.91253Z" fill="white"/>
</g>
<defs>
<clipPath id="clip0_212_1593">
<rect width="18.3627" height="10.016" fill="white" transform="translate(0.720886 0.847534)"/>
</clipPath>
</defs>
</svg>
