<svg width="14" height="15" viewBox="0 0 14 15" fill="none" xmlns="http://www.w3.org/2000/svg">
<g id="Logo" clip-path="url(#clip0_212_1587)">
<path id="Vector" fill-rule="evenodd" clip-rule="evenodd" d="M3.74925 0.958862C5.59313 0.958862 7.08791 2.45363 7.08791 4.29753V0.958862H10.4266C12.2705 0.958862 13.7652 2.45363 13.7652 4.29753C13.7652 6.14141 12.2705 7.63619 10.4266 7.63619C12.2705 7.63619 13.7652 9.13098 13.7652 10.9749C13.7652 11.8904 13.3967 12.7199 12.7999 13.3231L12.7874 13.3357L12.7763 13.3467C12.173 13.9444 11.3429 14.3135 10.4266 14.3135C9.51649 14.3135 8.69144 13.9494 8.08918 13.3588C8.08137 13.3512 8.07355 13.3434 8.06578 13.3357C8.05846 13.3284 8.05119 13.321 8.04394 13.3136C7.45263 12.7113 7.08791 11.8856 7.08791 10.9749C7.08791 12.8187 5.59313 14.3135 3.74925 14.3135C1.90535 14.3135 0.410583 12.8187 0.410583 10.9749V7.63619H3.74925C1.90535 7.63619 0.410583 6.14141 0.410583 4.29753C0.410583 2.45363 1.90535 0.958862 3.74925 0.958862ZM6.42018 4.29753C6.42018 5.77265 5.22437 6.96846 3.74925 6.96846V1.6266C5.22437 1.6266 6.42018 2.82241 6.42018 4.29753ZM13.0975 10.9749C13.0975 9.49974 11.9017 8.30393 10.4266 8.30393C8.95146 8.30393 7.75565 9.49974 7.75565 10.9749H13.0975ZM1.07832 8.30393V10.9749C1.07832 12.45 2.27413 13.6458 3.74925 13.6458C5.22437 13.6458 6.42018 12.45 6.42018 10.9749V8.30393H1.07832ZM7.75565 6.96846V1.6266H10.4266C11.9017 1.6266 13.0975 2.82241 13.0975 4.29753C13.0975 5.77265 11.9017 6.96846 10.4266 6.96846H7.75565Z" fill="#5417D7"/>
</g>
<defs>
<clipPath id="clip0_212_1587">
<rect width="13.3547" height="13.3547" fill="white" transform="translate(0.410583 0.958862)"/>
</clipPath>
</defs>
</svg>
