<svg width="14" height="10" viewBox="0 0 14 10" fill="none" xmlns="http://www.w3.org/2000/svg">
<g id="Logo" clip-path="url(#clip0_212_1613)">
<path id="Vector" d="M12.9822 0.796958C12.9822 0.952537 13.1099 1.07866 13.2674 1.07866H13.5526C13.7101 1.07866 13.8378 0.952537 13.8378 0.796958C13.8378 0.64138 13.7101 0.515259 13.5526 0.515259H13.2674C13.1099 0.515259 12.9822 0.64138 12.9822 0.796958Z" fill="#212326"/>
<path id="Vector_2" d="M4.71201 9.52966H6.09736L5.69405 9.13126C5.5871 9.02562 5.44202 8.96626 5.29076 8.96626H4.71201C2.50702 8.96626 0.719525 7.20056 0.719525 5.02246C0.719525 2.84435 2.50702 1.07866 4.71201 1.07866H9.27486C11.4798 1.07866 13.2673 2.84435 13.2673 5.02246C13.2673 7.20056 11.4798 8.96626 9.27486 8.96626H7.56799C7.34108 8.96626 7.12348 8.87722 6.96302 8.71874L6.49054 8.252C6.22314 7.98786 5.86044 7.83946 5.48227 7.83946H4.71201C3.13701 7.83946 1.86024 6.57825 1.86024 5.02246C1.86024 3.46666 3.13701 2.20546 4.71201 2.20546H9.27486C10.8499 2.20546 12.1266 3.46666 12.1266 5.02246C12.1266 6.57825 10.8499 7.83946 9.27486 7.83946H8.17888C7.95197 7.83946 7.73437 7.75042 7.57392 7.59194L7.10141 7.1252C6.83401 6.86106 6.47133 6.71266 6.09316 6.71266H4.71201C3.76703 6.71266 3.00095 5.95592 3.00095 5.02246C3.00095 4.08899 3.76703 3.33226 4.71201 3.33226H9.27486C10.2198 3.33226 10.9859 4.08899 10.9859 5.02246C10.9859 5.94454 10.2384 6.69418 9.30935 6.71232L9.30917 6.71266H8.89183C8.66492 6.71266 8.44732 6.62362 8.28686 6.46514L7.81436 5.9984C7.59495 5.78165 7.3114 5.64285 7.00776 5.60001L6.99343 5.58586H4.71201C4.39702 5.58586 4.14166 5.33361 4.14166 5.02246C4.14166 4.7113 4.39702 4.45906 4.71201 4.45906H9.27486C9.58985 4.45906 9.84521 4.7113 9.84521 5.02246C9.84521 5.33361 9.58985 5.58586 9.27486 5.58586H8.13415L8.53745 5.98425C8.64441 6.0899 8.78948 6.14926 8.94074 6.14926H9.27486C9.90485 6.14926 10.4156 5.64477 10.4156 5.02246C10.4156 4.40015 9.90485 3.89566 9.27486 3.89566H4.71201C4.08202 3.89566 3.5713 4.40015 3.5713 5.02246C3.5713 5.64477 4.08202 6.14926 4.71201 6.14926H6.80611C7.03302 6.14926 7.25062 6.2383 7.41107 6.39677L7.88358 6.86351C8.15098 7.12766 8.51366 7.27606 8.89183 7.27606H9.41745V7.27173C10.611 7.19903 11.5563 6.21977 11.5563 5.02246C11.5563 3.77784 10.5348 2.76886 9.27486 2.76886H4.71201C3.45203 2.76886 2.43059 3.77784 2.43059 5.02246C2.43059 6.2671 3.45203 7.27606 4.71201 7.27606H6.09316C6.32007 7.27606 6.53768 7.3651 6.69813 7.52357L7.17063 7.99031C7.43804 8.25446 7.80072 8.40286 8.17888 8.40286H9.27486C11.1649 8.40286 12.697 6.88941 12.697 5.02246C12.697 3.15551 11.1649 1.64206 9.27486 1.64206H4.71201C2.82202 1.64206 1.28988 3.15551 1.28988 5.02246C1.28988 6.88941 2.82202 8.40286 4.71201 8.40286H5.48227C5.70918 8.40286 5.92678 8.4919 6.08723 8.65037L6.55974 9.11711C6.82714 9.38126 7.18982 9.52966 7.56799 9.52966H9.27486C11.7948 9.52966 13.8377 7.51171 13.8377 5.02246C13.8377 2.5332 11.7948 0.515259 9.27486 0.515259L4.71201 0.51526C2.19202 0.51526 0.14917 2.5332 0.14917 5.02246C0.14917 7.51171 2.19203 9.52966 4.71201 9.52966Z" fill="#212326"/>
</g>
<defs>
<clipPath id="clip0_212_1613">
<rect width="13.6885" height="9.0144" fill="white" transform="translate(0.14917 0.515259)"/>
</clipPath>
</defs>
</svg>
