<svg width="17" height="17" viewBox="0 0 17 17" fill="none" xmlns="http://www.w3.org/2000/svg">
<g id="Icon">
<g id="Vector">
<path d="M14.0916 14.4071V13.0717C14.0916 12.3633 13.8102 11.6839 13.3093 11.183C12.8084 10.6821 12.1291 10.4007 11.4207 10.4007H10.753C10.5759 10.4007 10.406 10.3304 10.2808 10.2052C10.1556 10.0799 10.0852 9.9101 10.0852 9.733V6.39434C10.0852 6.04015 9.94453 5.70047 9.69408 5.45002C9.44363 5.19957 9.10395 5.05887 8.74976 5.05887C8.39558 5.05887 8.05589 5.19957 7.80545 5.45002C7.555 5.70047 7.4143 6.04015 7.4143 6.39434V12.4039L5.81174 10.2672C5.68734 10.1013 5.52604 9.96671 5.3406 9.87399C5.15517 9.78127 4.95069 9.733 4.74336 9.733H4.45357C3.87598 9.733 3.4079 10.2011 3.4079 10.7787C3.4079 10.9683 3.45931 11.1546 3.5568 11.3169L5.4111 14.4071M8.74976 3.05567V2.38794V3.05567ZM12.7562 7.06207H13.4239H12.7562ZM4.07563 7.06207H4.74336H4.07563ZM5.64013 3.95244L5.16804 3.48035L5.64013 3.95244ZM11.8594 3.95244L12.3315 3.48035L11.8594 3.95244Z" fill="#4CAF4F"/>
<path d="M14.0916 14.4071V13.0717C14.0916 12.3633 13.8102 11.6839 13.3093 11.183C12.8084 10.6821 12.1291 10.4007 11.4207 10.4007H10.753C10.5759 10.4007 10.406 10.3304 10.2808 10.2052C10.1556 10.0799 10.0852 9.9101 10.0852 9.733V6.39434C10.0852 6.04015 9.94453 5.70047 9.69408 5.45002C9.44363 5.19957 9.10395 5.05887 8.74976 5.05887V5.05887C8.39557 5.05887 8.05589 5.19957 7.80545 5.45002C7.555 5.70047 7.4143 6.04015 7.4143 6.39434V12.4039L5.81174 10.2672C5.68734 10.1013 5.52604 9.96671 5.3406 9.87399C5.15517 9.78127 4.95069 9.733 4.74336 9.733H4.45357C3.87598 9.733 3.4079 10.2011 3.4079 10.7787C3.4079 10.9683 3.45931 11.1546 3.5568 11.3169L5.4111 14.4071M8.74976 3.05567V2.38794M12.7562 7.06207H13.4239M4.07563 7.06207H4.74336M5.64013 3.95244L5.16804 3.48035M11.8594 3.95244L12.3315 3.48035" stroke="#4CAF4F" stroke-width="0.667733" stroke-linecap="round" stroke-linejoin="round"/>
</g>
</g>
</svg>
