<svg width="12" height="9" viewBox="0 0 12 9" fill="none" xmlns="http://www.w3.org/2000/svg">
<g id="Icon">
<path id="Vector" d="M6.34889 4.89441L4.54903 7.97696L2.7492 4.89441H6.34889ZM6.83106 4.6189H2.26508L4.54903 8.5222L6.83106 4.6189Z" fill="#263238"/>
<path id="Vector_2" d="M9.47813 1.06053L11.278 4.14308H7.67827L9.47813 1.06053ZM9.47813 0.509521L7.19415 4.41281H11.7621L9.47813 0.509521Z" fill="#263238"/>
<path id="Vector_3" d="M0.0767822 0.509521L1.99181 3.96199L4.08446 0.596214L0.0767822 0.509521Z" fill="#4CAF4F"/>
<path id="Vector_4" d="M4.54913 0.812012L6.55786 4.24521H2.5365L4.54913 0.812012Z" fill="#4CAF4F"/>
<path id="Vector_5" d="M7.07514 4.99463L9.08582 8.52225H4.96881L7.01267 4.99463H7.07514Z" fill="#4CAF4F"/>
<path id="Vector_6" d="M7.51044 4.78076L9.47816 8.25442L11.4732 4.78076H7.51044Z" fill="#4CAF4F"/>
</g>
</svg>
