<svg width="14" height="10" viewBox="0 0 14 10" fill="none" xmlns="http://www.w3.org/2000/svg">
<rect width="14" height="10" fill="#F5F5F5"/>
<g clip-path="url(#clip0_1_2)" filter="url(#filter0_d_1_2)">
<rect width="481" height="1306" transform="translate(-295 -285)" fill="white"/>
<g clip-path="url(#clip1_1_2)">
<path d="M12.971 0.64791C12.971 0.80349 13.0986 0.92961 13.2562 0.92961H13.5413C13.6988 0.92961 13.8265 0.80349 13.8265 0.64791C13.8265 0.492332 13.6988 0.366211 13.5413 0.366211H13.2562C13.0986 0.366211 12.971 0.492332 12.971 0.64791Z" fill="#212326"/>
<path d="M4.7009 9.38061H6.08625L5.68294 8.98222C5.57599 8.87657 5.43091 8.81721 5.27966 8.81721H4.7009C2.49591 8.81721 0.708417 7.05151 0.708417 4.87341C0.708417 2.69531 2.49591 0.929613 4.7009 0.929611H9.26375C11.4687 0.929611 13.2562 2.69531 13.2562 4.87341C13.2562 7.05151 11.4687 8.81721 9.26375 8.81721H7.55688C7.32997 8.81721 7.11237 8.72817 6.95191 8.56969L6.47943 8.10295C6.21203 7.83881 5.84933 7.69041 5.47116 7.69041H4.7009C3.1259 7.69041 1.84913 6.4292 1.84913 4.87341C1.84913 3.31761 3.1259 2.05641 4.7009 2.05641H9.26375C10.8387 2.05641 12.1155 3.31761 12.1155 4.87341C12.1155 6.4292 10.8387 7.69041 9.26375 7.69041H8.16778C7.94087 7.69041 7.72326 7.60137 7.56281 7.4429L7.09031 6.97615C6.8229 6.71201 6.46022 6.56361 6.08205 6.56361H4.7009C3.75592 6.56361 2.98984 5.80687 2.98984 4.87341C2.98984 3.93995 3.75592 3.18321 4.7009 3.18321H9.26375C10.2087 3.18321 10.9748 3.93995 10.9748 4.87341C10.9748 5.79549 10.2273 6.54513 9.29824 6.56327L9.29806 6.56361H8.88072C8.65381 6.56361 8.43621 6.47457 8.27575 6.3161L7.80325 5.84935C7.58385 5.6326 7.30029 5.4938 6.99665 5.45096L6.98233 5.43681H4.7009C4.38591 5.43681 4.13055 5.18456 4.13055 4.87341C4.13055 4.56225 4.38591 4.31001 4.7009 4.31001H9.26375C9.57874 4.31001 9.8341 4.56225 9.8341 4.87341C9.8341 5.18456 9.57874 5.43681 9.26375 5.43681H8.12304L8.52635 5.8352C8.6333 5.94085 8.77838 6.00021 8.92963 6.00021H9.26375C9.89374 6.00021 10.4045 5.49572 10.4045 4.87341C10.4045 4.2511 9.89374 3.74661 9.26375 3.74661H4.7009C4.07091 3.74661 3.56019 4.2511 3.56019 4.87341C3.56019 5.49572 4.07091 6.00021 4.7009 6.00021H6.795C7.02191 6.00021 7.23951 6.08925 7.39996 6.24772L7.87247 6.71446C8.13987 6.97861 8.50255 7.12701 8.88072 7.12701H9.40634V7.12268C10.5999 7.04998 11.5452 6.07072 11.5452 4.87341C11.5452 3.62879 10.5237 2.61981 9.26375 2.61981H4.7009C3.44092 2.61981 2.41948 3.62879 2.41948 4.87341C2.41948 6.11805 3.44092 7.12701 4.7009 7.12701H6.08205C6.30896 7.12701 6.52657 7.21605 6.68702 7.37452L7.15952 7.84126C7.42693 8.10541 7.78961 8.25381 8.16778 8.25381H9.26375C11.1537 8.25381 12.6859 6.74036 12.6859 4.87341C12.6859 3.00646 11.1537 1.49301 9.26375 1.49301H4.7009C2.81091 1.49301 1.27877 3.00646 1.27877 4.87341C1.27877 6.74036 2.81091 8.25381 4.7009 8.25381H5.47116C5.69807 8.25381 5.91567 8.34285 6.07612 8.50132L6.54863 8.96806C6.81603 9.23221 7.17871 9.38061 7.55688 9.38061H9.26375C11.7837 9.38061 13.8266 7.36267 13.8266 4.87341C13.8266 2.38415 11.7837 0.366211 9.26375 0.366211L4.7009 0.366212C2.18091 0.366212 0.138061 2.38415 0.138062 4.87341C0.138062 7.36267 2.18092 9.38061 4.7009 9.38061Z" fill="#212326"/>
</g>
</g>
<defs>
<filter id="filter0_d_1_2" x="-427" y="-285" width="681" height="1514" filterUnits="userSpaceOnUse" color-interpolation-filters="sRGB">
<feFlood flood-opacity="0" result="BackgroundImageFix"/>
<feColorMatrix in="SourceAlpha" type="matrix" values="0 0 0 0 0 0 0 0 0 0 0 0 0 0 0 0 0 0 127 0" result="hardAlpha"/>
<feOffset dx="-32" dy="108"/>
<feGaussianBlur stdDeviation="50"/>
<feComposite in2="hardAlpha" operator="out"/>
<feColorMatrix type="matrix" values="0 0 0 0 0 0 0 0 0 0 0 0 0 0 0 0 0 0 0.2 0"/>
<feBlend mode="normal" in2="BackgroundImageFix" result="effect1_dropShadow_1_2"/>
<feBlend mode="normal" in="SourceGraphic" in2="effect1_dropShadow_1_2" result="shape"/>
</filter>
<clipPath id="clip0_1_2">
<rect width="481" height="1306" fill="white" transform="translate(-295 -285)"/>
</clipPath>
<clipPath id="clip1_1_2">
<rect width="13.6885" height="9.0144" fill="white" transform="translate(0.138062 0.366211)"/>
</clipPath>
</defs>
</svg>
