<svg width="20" height="11" viewBox="0 0 20 11" fill="none" xmlns="http://www.w3.org/2000/svg">
<rect width="20" height="11" fill="#F5F5F5"/>
<g id="Landing Page" clip-path="url(#clip0_1_2)" filter="url(#filter0_d_1_2)">
<rect width="481" height="1306" transform="translate(-415 -284)" fill="white"/>
<g id="Home">
<g id="Clients">
<g id="Clients Logos">
<g id="Logo">
<g id="Logo_2" clip-path="url(#clip1_1_2)">
<path id="Vector" d="M19.0251 4.26073C19.027 4.2468 19.027 4.23273 19.0251 4.21881C19.0269 4.20747 19.0269 4.1959 19.0251 4.18453L18.889 3.20541C18.8694 3.08828 18.8169 2.97879 18.7375 2.8892L18.7142 2.86253L18.6714 2.82063L16.3165 0.831924L16.3825 0.896696C16.3285 0.8333 16.2607 0.782592 16.184 0.748307C16.1073 0.714021 16.0238 0.69703 15.9395 0.698586H15.2245C15.1082 0.696327 14.9946 0.732569 14.9019 0.801451C14.8047 0.732984 14.6875 0.696928 14.5677 0.698586H13.8527C13.7589 0.697094 13.6664 0.719912 13.5845 0.764735C13.5026 0.809558 13.4343 0.874795 13.3864 0.953839C13.3125 1.06674 13.2848 1.20276 13.3087 1.33482L13.398 1.952C13.3388 1.91909 13.2718 1.90202 13.2037 1.90248H9.74125C9.61702 1.90324 9.49565 1.93894 9.39149 2.00534C9.29078 2.06714 9.20993 2.15564 9.15834 2.26059L8.89019 2.03581C8.78466 1.94008 8.64536 1.8882 8.50159 1.89105H3.06887C2.9442 1.89327 2.8223 1.92742 2.71525 1.9901C2.56879 2.07414 2.46146 2.21078 2.41601 2.37107L0.690597 8.02859C0.658358 8.12182 0.655187 8.22235 0.681489 8.31735C0.707791 8.41233 0.762376 8.49752 0.838269 8.56197C0.858045 8.5784 0.878809 8.59367 0.900448 8.60767C0.900448 8.60767 0.865468 8.58481 0.846037 8.56578L3.201 10.5583C3.30062 10.6482 3.43087 10.6985 3.56627 10.6992H9.04176C9.16681 10.6961 9.28879 10.6606 9.3954 10.5964C9.45569 10.5641 9.50963 10.5215 9.55472 10.4706L9.57415 10.444L9.60524 10.4059L9.62855 10.364L9.88504 10.5811C9.98323 10.6675 10.1106 10.715 10.2426 10.7145H15.7297C15.8546 10.7104 15.9763 10.675 16.0833 10.6116C16.1422 10.5773 16.1959 10.535 16.2427 10.4859L16.2621 10.4592L16.2932 10.4211C16.3097 10.397 16.324 10.3715 16.3359 10.3449C16.3486 10.3218 16.359 10.2976 16.367 10.2726L17.9408 5.1065V5.06078C17.9428 5.04305 17.9428 5.02517 17.9408 5.00744V4.97316C17.9427 4.96179 17.9427 4.95023 17.9408 4.93886C17.9426 4.91477 17.9426 4.89058 17.9408 4.86647H18.446C18.49 4.87042 18.5342 4.87042 18.5782 4.86647H18.6131C18.6416 4.85815 18.669 4.84664 18.6948 4.83219H18.7336L18.8036 4.77885L18.8346 4.75599L18.889 4.68741V4.66457L18.9279 4.59979C18.9257 4.5872 18.9257 4.5743 18.9279 4.56171C18.9258 4.55552 18.9258 4.54884 18.9279 4.54265C18.9362 4.52031 18.9427 4.49738 18.9473 4.47407C18.9455 4.46655 18.9455 4.45872 18.9473 4.4512C18.9455 4.43986 18.9455 4.42827 18.9473 4.41692C18.9473 4.41692 19.0251 4.26834 19.0251 4.26073Z" fill="black"/>
<path id="Vector_2" d="M8.66096 2.32523C8.68159 2.34352 8.696 2.36757 8.70225 2.39414C8.70852 2.42071 8.7063 2.44851 8.69595 2.47381L6.97442 8.12752C6.95275 8.18924 6.9084 8.24085 6.85007 8.2723C6.80261 8.30342 6.74767 8.3218 6.69072 8.32563H1.21915C1.17242 8.32343 1.12815 8.30445 1.09479 8.2723C1.07495 8.2543 1.06102 8.23091 1.05479 8.20514C1.04856 8.17935 1.05032 8.15233 1.05982 8.12752L2.78524 2.47381C2.80512 2.41131 2.84807 2.35832 2.9057 2.32523C2.95395 2.29634 3.00862 2.27935 3.06503 2.27571H8.5366C8.58297 2.27614 8.62742 2.29385 8.66096 2.32523ZM5.8047 6.9884L6.83451 3.61293H3.95106L2.92513 6.9884H5.8047ZM13.8838 2.38238C13.9025 2.40365 13.9258 2.42051 13.9521 2.43173C13.9783 2.44294 14.0068 2.44821 14.0354 2.44714H14.7465C14.7736 2.4474 14.8003 2.44089 14.8241 2.42823C14.8479 2.41556 14.868 2.39716 14.8826 2.37476C14.8952 2.35726 14.9041 2.33745 14.9088 2.31651C14.9134 2.29557 14.9138 2.27392 14.9097 2.25285L14.7699 1.24707C14.7565 1.20052 14.7326 1.15753 14.6999 1.12134C14.6812 1.10008 14.6579 1.08321 14.6317 1.072C14.6054 1.06078 14.5769 1.05551 14.5484 1.05658H13.8372C13.8101 1.05632 13.7834 1.06283 13.7596 1.0755C13.7358 1.08816 13.7157 1.10656 13.7012 1.12897C13.674 1.1823 13.6623 1.21659 13.674 1.24707L13.8178 2.25285C13.8252 2.30182 13.8483 2.3472 13.8838 2.38238ZM16.1417 1.23945C16.1283 1.1929 16.1044 1.14991 16.0717 1.11372C16.0538 1.09253 16.0312 1.07567 16.0056 1.06444C15.98 1.05321 15.9521 1.04791 15.924 1.04896H15.209C15.1824 1.04821 15.156 1.05455 15.1328 1.06729C15.1095 1.08004 15.0902 1.09872 15.0769 1.12134C15.051 1.15514 15.0398 1.1976 15.0458 1.23945L15.1895 2.24523C15.1986 2.29368 15.2215 2.33862 15.2556 2.37476C15.2746 2.39561 15.298 2.4122 15.3242 2.42337C15.3503 2.43455 15.3786 2.44006 15.4072 2.43952H16.1222C16.1488 2.43987 16.175 2.43336 16.1981 2.42066C16.2214 2.40795 16.2407 2.3895 16.2544 2.36714C16.2679 2.3501 16.2773 2.33029 16.282 2.3092C16.2867 2.28811 16.2866 2.26625 16.2815 2.24523L16.1417 1.23945ZM13.2582 2.76336L13.1882 2.26809H9.74129C9.68718 2.27101 9.63482 2.28812 9.58973 2.31761C9.56111 2.33291 9.53619 2.35412 9.51674 2.37977C9.4973 2.40543 9.48376 2.43491 9.47705 2.46619L9.18947 3.41101C9.17799 3.43462 9.17407 3.46112 9.17822 3.48696C9.18241 3.5128 9.19444 3.53679 9.21278 3.55579C9.24555 3.58599 9.28832 3.60359 9.33326 3.60532H13.5224L12.4926 6.98079H8.3151C8.26124 6.98199 8.20878 6.99781 8.16356 7.02649C8.1086 7.06071 8.06846 7.11362 8.05086 7.17507L7.7594 8.11991C7.74989 8.14415 7.74739 8.17049 7.75219 8.19603C7.75701 8.22159 7.76889 8.24533 7.78659 8.26466C7.81834 8.29689 7.86144 8.31597 7.90707 8.318H13.3942C13.4509 8.31321 13.5056 8.29491 13.5535 8.26466C13.6109 8.23306 13.6539 8.18135 13.674 8.11991L15.2517 2.95385H13.4758C13.4476 2.95439 13.4196 2.94926 13.3936 2.93878C13.3675 2.92829 13.3439 2.91267 13.3243 2.89289C13.2921 2.85834 13.2694 2.81641 13.2582 2.77098V2.76336Z" fill="white"/>
</g>
</g>
</g>
</g>
</g>
</g>
<defs>
<filter id="filter0_d_1_2" x="-547" y="-284" width="681" height="1514" filterUnits="userSpaceOnUse" color-interpolation-filters="sRGB">
<feFlood flood-opacity="0" result="BackgroundImageFix"/>
<feColorMatrix in="SourceAlpha" type="matrix" values="0 0 0 0 0 0 0 0 0 0 0 0 0 0 0 0 0 0 127 0" result="hardAlpha"/>
<feOffset dx="-32" dy="108"/>
<feGaussianBlur stdDeviation="50"/>
<feComposite in2="hardAlpha" operator="out"/>
<feColorMatrix type="matrix" values="0 0 0 0 0 0 0 0 0 0 0 0 0 0 0 0 0 0 0.2 0"/>
<feBlend mode="normal" in2="BackgroundImageFix" result="effect1_dropShadow_1_2"/>
<feBlend mode="normal" in="SourceGraphic" in2="effect1_dropShadow_1_2" result="shape"/>
</filter>
<clipPath id="clip0_1_2">
<rect width="481" height="1306" fill="white" transform="translate(-415 -284)"/>
</clipPath>
<clipPath id="clip1_1_2">
<rect width="18.3627" height="10.016" fill="white" transform="translate(0.663849 0.698486)"/>
</clipPath>
</defs>
</svg>
