<svg width="18" height="8" viewBox="0 0 18 8" fill="none" xmlns="http://www.w3.org/2000/svg">
<rect width="18" height="8" fill="#F5F5F5"/>
<g clip-path="url(#clip0_1_2)" filter="url(#filter0_d_1_2)">
<rect width="481" height="1306" transform="translate(-354 -286)" fill="white"/>
<g clip-path="url(#clip1_1_2)">
<path d="M4.6872 0.36792C4.0092 0.36792 3.35899 0.63725 2.87958 1.11666L1.31498 2.68126C0.835569 3.16067 0.566238 3.81089 0.566238 4.48888C0.566238 5.90073 1.71076 7.04525 3.12261 7.04525C3.8006 7.04525 4.45082 6.77591 4.93023 6.2965L6.01247 5.21426C6.01247 5.21424 6.01249 5.21428 6.01247 5.21426L9.16575 2.06098C9.39472 1.83202 9.70526 1.70339 10.0291 1.70339C10.5712 1.70339 11.0308 2.05671 11.1901 2.54564L12.1853 1.55047C11.7313 0.839415 10.9352 0.36792 10.0291 0.36792C9.35107 0.36792 8.70085 0.63725 8.22144 1.11666L3.98592 5.35219C3.75696 5.58116 3.44642 5.70978 3.12261 5.70978C2.44832 5.70978 1.9017 5.16318 1.9017 4.48888C1.9017 4.16507 2.03033 3.85453 2.2593 3.62557L3.82389 2.06098C4.05285 1.83202 4.36339 1.70339 4.6872 1.70339C5.22933 1.70339 5.68891 2.05672 5.84825 2.54567L6.84344 1.55049C6.38945 0.839429 5.5934 0.36792 4.6872 0.36792Z" fill="#394149"/>
<path d="M9.32776 5.35219C9.0988 5.58116 8.78826 5.70978 8.46445 5.70978C7.92241 5.70978 7.46285 5.35655 7.30346 4.86771L6.30832 5.86285C6.76233 6.57381 7.55834 7.04525 8.46445 7.04525C9.14244 7.04525 9.79266 6.77591 10.2721 6.2965L14.5076 2.06098C14.7366 1.83202 15.0471 1.70339 15.3709 1.70339C16.0452 1.70339 16.5918 2.25 16.5918 2.92429C16.5918 3.2481 16.4632 3.55864 16.2342 3.7876L14.6696 5.35219C14.4407 5.58116 14.1301 5.70978 13.8063 5.70978C13.2642 5.70978 12.8046 5.35649 12.6453 4.8676L11.6501 5.86276C12.1041 6.57379 12.9002 7.04525 13.8063 7.04525C14.4843 7.04525 15.1345 6.77591 15.6139 6.2965L17.1785 4.73191C17.6579 4.2525 17.9273 3.60229 17.9273 2.92429C17.9273 1.51245 16.7828 0.36792 15.3709 0.36792C14.6929 0.36792 14.0427 0.63725 13.5633 1.11666L9.32776 5.35219Z" fill="#394149"/>
</g>
</g>
<defs>
<filter id="filter0_d_1_2" x="-486" y="-286" width="681" height="1514" filterUnits="userSpaceOnUse" color-interpolation-filters="sRGB">
<feFlood flood-opacity="0" result="BackgroundImageFix"/>
<feColorMatrix in="SourceAlpha" type="matrix" values="0 0 0 0 0 0 0 0 0 0 0 0 0 0 0 0 0 0 127 0" result="hardAlpha"/>
<feOffset dx="-32" dy="108"/>
<feGaussianBlur stdDeviation="50"/>
<feComposite in2="hardAlpha" operator="out"/>
<feColorMatrix type="matrix" values="0 0 0 0 0 0 0 0 0 0 0 0 0 0 0 0 0 0 0.2 0"/>
<feBlend mode="normal" in2="BackgroundImageFix" result="effect1_dropShadow_1_2"/>
<feBlend mode="normal" in="SourceGraphic" in2="effect1_dropShadow_1_2" result="shape"/>
</filter>
<clipPath id="clip0_1_2">
<rect width="481" height="1306" fill="white" transform="translate(-354 -286)"/>
</clipPath>
<clipPath id="clip1_1_2">
<rect width="17.3611" height="6.67733" fill="white" transform="translate(0.566238 0.36792)"/>
</clipPath>
</defs>
</svg>
