<svg width="17" height="17" viewBox="0 0 17 17" fill="none" xmlns="http://www.w3.org/2000/svg">
<g id="Icon" clip-path="url(#clip0_212_1407)">
<path id="Vector" d="M11.3477 4.12007C11.1036 4.11963 10.8605 4.1534 10.6257 4.22038L10.6257 4.22037L10.6238 4.22094C10.5496 4.24309 10.4716 4.25025 10.3946 4.24199C10.3175 4.23374 10.2429 4.21024 10.175 4.17286L10.0945 4.31909L10.175 4.17286C10.1071 4.13548 10.0473 4.08498 9.99917 4.02428C9.951 3.96358 9.91538 3.8939 9.89439 3.81931C9.8734 3.74471 9.86745 3.66668 9.87691 3.58977C9.88636 3.51286 9.91102 3.43859 9.94945 3.3713C9.98789 3.304 10.0393 3.24503 10.1008 3.19781C10.1622 3.15058 10.2324 3.11605 10.3073 3.09623L10.3073 3.09625L10.3103 3.0954C10.6476 2.99938 10.9967 2.95096 11.3473 2.95154L11.3481 2.95154C12.1361 2.94925 12.9056 3.18987 13.552 3.64064C14.1983 4.09141 14.69 4.73041 14.9602 5.47066C15.2303 6.21091 15.2657 7.01643 15.0616 7.77753C14.8575 8.53864 14.4238 9.21836 13.8196 9.72414L13.6158 9.89468L13.8579 10.0042C14.8506 10.4535 15.7048 11.1604 16.3318 12.0516L16.3325 12.0526C16.377 12.1149 16.4088 12.1855 16.4258 12.2601C16.4429 12.3348 16.4449 12.4122 16.4318 12.4876C16.4187 12.5631 16.3907 12.6352 16.3495 12.6998C16.3082 12.7644 16.2546 12.8201 16.1916 12.8637L16.1916 12.8637L16.1897 12.8651C16.0922 12.9348 15.9753 12.9721 15.8556 12.9717C15.7619 12.9711 15.6697 12.9483 15.5866 12.905C15.5035 12.8618 15.4319 12.7994 15.3777 12.723C14.9224 12.0772 14.3189 11.5501 13.6177 11.186C12.9164 10.8219 12.138 10.6313 11.3478 10.6305H11.3476C11.1927 10.6305 11.044 10.5689 10.9345 10.4593C10.8249 10.3498 10.7633 10.2012 10.7633 10.0462C10.7633 9.89125 10.8249 9.74264 10.9345 9.63307C11.044 9.5235 11.1927 9.46194 11.3476 9.46194C12.056 9.46194 12.7354 9.18054 13.2362 8.67964C13.7371 8.17874 14.0185 7.49938 14.0185 6.79101C14.0185 6.08263 13.7371 5.40327 13.2362 4.90237C12.7354 4.4015 12.0561 4.12011 11.3477 4.12007ZM11.3477 4.12007C11.3478 4.12007 11.3479 4.12007 11.3479 4.12007L11.3476 4.28701V4.12007C11.3477 4.12007 11.3477 4.12007 11.3477 4.12007ZM8.71737 9.7244L8.5146 9.89498L8.75601 10.0042C9.74869 10.4535 10.6029 11.1604 11.2299 12.0516L11.2297 12.0517L11.2348 12.0582C11.2835 12.1206 11.319 12.1923 11.3392 12.2688L11.5006 12.2262L11.3392 12.2688C11.3594 12.3453 11.3638 12.4252 11.3522 12.5035C11.3406 12.5818 11.3132 12.6569 11.2716 12.7243C11.2301 12.7916 11.1753 12.8499 11.1106 12.8955C11.0459 12.941 10.9726 12.973 10.8951 12.9893C10.8177 13.0057 10.7377 13.0062 10.6601 12.9907C10.5825 12.9753 10.5088 12.9442 10.4436 12.8994C10.3783 12.8546 10.3228 12.797 10.2805 12.7301L10.2807 12.73L10.2761 12.7235C9.82176 12.0764 9.21834 11.5482 8.51683 11.1836C7.81532 10.819 7.03633 10.6287 6.24572 10.6287C5.4551 10.6287 4.67611 10.819 3.9746 11.1836C3.27309 11.5482 2.66968 12.0764 2.21537 12.7235L2.215 12.724C2.1616 12.8007 2.09039 12.8633 2.00749 12.9064C1.92458 12.9496 1.83245 12.972 1.739 12.9717L1.73797 12.9717C1.61811 12.9721 1.50116 12.9348 1.40365 12.8651L1.40285 12.8645C1.27645 12.7753 1.19061 12.6396 1.16414 12.4872C1.13767 12.3348 1.17274 12.1781 1.26165 12.0514C1.88859 11.1603 2.74278 10.4534 3.73542 10.0042L3.97683 9.89498L3.77406 9.7244C3.17142 9.21743 2.73925 8.53742 2.53614 7.77654C2.33303 7.01566 2.36881 6.21072 2.63862 5.47086C2.90844 4.73101 3.39924 4.09201 4.04448 3.64051C4.68972 3.18901 5.45819 2.94684 6.24572 2.94684C7.03324 2.94684 7.80171 3.18901 8.44695 3.64051C9.0922 4.09201 9.58299 4.73101 9.85281 5.47086C10.1226 6.21072 10.1584 7.01566 9.95529 7.77654C9.75218 8.53742 9.32001 9.21743 8.71737 9.7244ZM1.30658 13.0009C1.43256 13.091 1.58366 13.1391 1.73852 13.1386C1.85897 13.139 1.9777 13.1101 2.08455 13.0545C2.1914 12.9989 2.28317 12.9182 2.352 12.8194C2.7909 12.1943 3.37386 11.684 4.05159 11.3318C4.72932 10.9795 5.4819 10.7956 6.24572 10.7956C7.00953 10.7956 7.76211 10.9795 8.43984 11.3318C9.11758 11.684 9.70053 12.1943 10.1394 12.8194L1.30658 13.0009ZM4.02492 5.30712C3.73143 5.74635 3.57478 6.26275 3.57478 6.79101C3.57478 7.49938 3.85618 8.17874 4.35708 8.67964C4.85798 9.18054 5.53734 9.46194 6.24572 9.46194C6.77398 9.46194 7.29037 9.30529 7.72961 9.01181C8.16884 8.71832 8.51118 8.30118 8.71334 7.81313C8.91549 7.32508 8.96839 6.78804 8.86533 6.26993C8.76227 5.75182 8.50789 5.27591 8.13435 4.90237C7.76081 4.52884 7.2849 4.27445 6.76679 4.1714C6.24868 4.06834 5.71164 4.12123 5.22359 4.32339C4.73555 4.52554 4.3184 4.86788 4.02492 5.30712Z" fill="#4CAF4F" stroke="#4CAF4F" stroke-width="0.333867"/>
</g>
<defs>
<clipPath id="clip0_212_1407">
<rect width="16.0256" height="16.0256" fill="white" transform="translate(0.736938 0.0301514)"/>
</clipPath>
</defs>
</svg>
