<svg width="17" height="17" viewBox="0 0 17 17" fill="none" xmlns="http://www.w3.org/2000/svg">
<g id="Icon">
<path id="Vector" d="M8.14855 3.83606C6.95623 3.83606 5.98558 4.81559 5.98558 6.01298C5.98558 6.77047 6.37455 7.4393 6.96192 7.82915C6.2525 8.06636 5.63865 8.50969 5.18842 9.08968C4.9395 8.89821 4.66136 8.74423 4.36152 8.63389C4.81621 8.29634 5.11333 7.7541 5.11333 7.14467C5.11333 6.12913 4.29199 5.29779 3.28261 5.29779C2.27323 5.29779 1.45189 6.12913 1.45189 7.14467C1.45189 7.75445 1.74926 8.29693 2.20433 8.63449C0.999542 9.07907 0.139099 10.243 0.139099 11.6129V12.5752C0.139222 12.6485 0.168565 12.7188 0.220592 12.7705C0.272619 12.8222 0.343018 12.8511 0.416374 12.8508H4.6381C4.64834 12.8519 4.65857 12.8526 4.6688 12.8524H11.6285C11.6388 12.8526 11.6491 12.8519 11.6592 12.8508H15.8813C16.033 12.8502 16.156 12.7271 16.1563 12.5752V11.6129C16.1563 10.243 15.2974 9.07907 14.0932 8.63436C14.5483 8.29693 14.8457 7.75432 14.8457 7.14454C14.8457 6.12901 14.0243 5.29766 13.0149 5.29766C12.0056 5.29766 11.1842 6.12901 11.1842 7.14454C11.1842 7.75397 11.4815 8.2963 11.9362 8.63376C11.6357 8.74435 11.3574 8.89883 11.1082 9.09078C10.6581 8.51045 10.0451 8.0665 9.33576 7.82915C9.92297 7.4393 10.3121 6.77047 10.3121 6.01298C10.3121 4.81559 9.34094 3.83606 8.14862 3.83606H8.14855ZM8.14855 4.38839C9.0403 4.38839 9.75919 5.11211 9.75919 6.01298C9.75919 6.90682 9.05151 7.6235 8.16963 7.63498C8.16261 7.63498 8.1557 7.634 8.14855 7.634C8.1414 7.634 8.13462 7.63498 8.12747 7.63498C7.2456 7.62364 6.53839 6.90685 6.53839 6.01298C6.53839 5.11198 7.25667 4.38839 8.14843 4.38839H8.14855ZM3.28264 5.85009C3.9902 5.85009 4.56103 6.42436 4.56103 7.14464C4.56103 7.86009 3.99758 8.43189 3.29669 8.43966C3.292 8.43966 3.28744 8.43917 3.28263 8.43917C3.27795 8.43917 3.27338 8.43966 3.26858 8.43966C2.56768 8.43189 2.00423 7.85996 2.00423 7.14464C2.00423 6.42439 2.57506 5.85009 3.28262 5.85009H3.28264ZM13.0148 5.85009C13.7223 5.85009 14.2932 6.42436 14.2932 7.14464C14.2932 7.86009 13.7297 8.43189 13.0288 8.43966C13.0241 8.43966 13.0196 8.43917 13.0148 8.43917C13.0101 8.43917 13.0055 8.43966 13.0007 8.43966C12.2998 8.43189 11.7364 7.85996 11.7364 7.14464C11.7364 6.42439 12.3072 5.85009 13.0148 5.85009H13.0148ZM8.1274 8.18729C8.13443 8.18741 8.14134 8.18827 8.14849 8.18827C8.15551 8.18827 8.16242 8.18729 8.16957 8.18729C9.93814 8.19863 11.3535 9.6262 11.3535 11.4132L11.3534 12.2999H4.94381V11.4132C4.94381 9.62604 6.3588 8.19865 8.12715 8.18729H8.1274ZM3.26149 8.99262C3.26852 8.99275 3.27543 8.99361 3.28258 8.99361C3.28973 8.99361 3.29651 8.99262 3.30366 8.99262C3.90185 8.99743 4.44778 9.20369 4.88248 9.54878C4.57142 10.0992 4.39154 10.7344 4.39154 11.4134V12.298H0.691211V11.6129C0.691211 10.1605 1.83312 9.00395 3.26143 8.9925L3.26149 8.99262ZM12.9936 8.99262C13.0008 8.99275 13.0076 8.99361 13.0147 8.99361C13.0219 8.99361 13.0286 8.99262 13.0358 8.99262C14.4641 9.00397 15.606 10.1607 15.606 11.613V12.298H11.9038L11.9037 11.4134C11.9037 10.7348 11.7243 10.1 11.4138 9.54976C11.8487 9.20418 12.395 8.99742 12.9937 8.99262H12.9936Z" fill="#103E13"/>
</g>
</svg>
