<svg width="17" height="17" viewBox="0 0 17 17" fill="none" xmlns="http://www.w3.org/2000/svg">
<g id="Icon">
<g id="Group 1">
<path id="Vector" d="M9.5197 6.84455C9.41553 6.84455 9.33084 6.75999 9.33084 6.65569V6.33473C9.33084 6.23056 9.41539 6.14587 9.5197 6.14587C9.62387 6.14587 9.70856 6.23042 9.70856 6.33473V6.65569C9.70856 6.75999 9.62388 6.84455 9.5197 6.84455Z" fill="#103E13"/>
<path id="Vector_2" d="M8.72566 6.84455C8.62149 6.84455 8.5368 6.75999 8.5368 6.65569V6.33473C8.5368 6.23056 8.62136 6.14587 8.72566 6.14587C8.82984 6.14587 8.91452 6.23042 8.91452 6.33473V6.65569C8.91439 6.75999 8.82997 6.84455 8.72566 6.84455Z" fill="#103E13"/>
<path id="Vector_3" d="M7.93172 6.84455C7.82755 6.84455 7.74286 6.75999 7.74286 6.65569V6.33473C7.74286 6.23056 7.82741 6.14587 7.93172 6.14587C8.03589 6.14587 8.12058 6.23042 8.12058 6.33473V6.65569C8.12058 6.75999 8.03603 6.84455 7.93172 6.84455Z" fill="#103E13"/>
<path id="Vector_4" d="M9.5197 8.15704C9.41553 8.15704 9.33084 8.07249 9.33084 7.96818V7.64736C9.33084 7.54318 9.41539 7.4585 9.5197 7.4585C9.62387 7.4585 9.70856 7.54305 9.70856 7.64736V7.96818C9.70856 8.07249 9.62388 8.15704 9.5197 8.15704Z" fill="#103E13"/>
<path id="Vector_5" d="M8.72566 8.15704C8.62149 8.15704 8.5368 8.07249 8.5368 7.96818V7.64736C8.5368 7.54318 8.62136 7.4585 8.72566 7.4585C8.82984 7.4585 8.91452 7.54305 8.91452 7.64736V7.96818C8.91439 8.07249 8.82997 8.15704 8.72566 8.15704Z" fill="#103E13"/>
<path id="Vector_6" d="M7.93172 8.15704C7.82755 8.15704 7.74286 8.07249 7.74286 7.96818V7.64736C7.74286 7.54318 7.82741 7.4585 7.93172 7.4585C8.03589 7.4585 8.12058 7.54305 8.12058 7.64736V7.96818C8.12058 8.07249 8.03603 8.15704 7.93172 8.15704Z" fill="#103E13"/>
<path id="Vector_7" d="M9.5197 9.46954C9.41553 9.46954 9.33084 9.38499 9.33084 9.28069V8.95973C9.33084 8.85556 9.41539 8.77087 9.5197 8.77087C9.62387 8.77087 9.70856 8.85542 9.70856 8.95973V9.28069C9.70856 9.38499 9.62388 9.46954 9.5197 9.46954Z" fill="#103E13"/>
<path id="Vector_8" d="M8.72566 9.46954C8.62149 9.46954 8.5368 9.38499 8.5368 9.28069V8.95973C8.5368 8.85556 8.62136 8.77087 8.72566 8.77087C8.82984 8.77087 8.91452 8.85542 8.91452 8.95973V9.28069C8.91439 9.38499 8.82997 9.46954 8.72566 9.46954Z" fill="#103E13"/>
<path id="Vector_9" d="M7.93172 9.46954C7.82755 9.46954 7.74286 9.38499 7.74286 9.28069V8.95973C7.74286 8.85556 7.82741 8.77087 7.93172 8.77087C8.03589 8.77087 8.12058 8.85542 8.12058 8.95973V9.28069C8.12058 9.38499 8.03603 9.46954 7.93172 9.46954Z" fill="#103E13"/>
<path id="Vector_10" d="M9.5197 10.7818C9.41553 10.7818 9.33084 10.6972 9.33084 10.5929V10.272C9.33084 10.1678 9.41539 10.0831 9.5197 10.0831C9.62387 10.0831 9.70856 10.1677 9.70856 10.272V10.5929C9.70856 10.6972 9.62388 10.7818 9.5197 10.7818Z" fill="#103E13"/>
<path id="Vector_11" d="M8.72566 10.7818C8.62149 10.7818 8.5368 10.6972 8.5368 10.5929V10.272C8.5368 10.1678 8.62136 10.0831 8.72566 10.0831C8.82984 10.0831 8.91452 10.1677 8.91452 10.272V10.5929C8.91439 10.6972 8.82997 10.7818 8.72566 10.7818Z" fill="#103E13"/>
<path id="Vector_12" d="M7.93172 10.7818C7.82755 10.7818 7.74286 10.6972 7.74286 10.5929V10.272C7.74286 10.1678 7.82741 10.0831 7.93172 10.0831C8.03589 10.0831 8.12058 10.1677 8.12058 10.272V10.5929C8.12058 10.6972 8.03603 10.7818 7.93172 10.7818Z" fill="#103E13"/>
<path id="Vector_13" d="M9.5197 12.0943C9.41553 12.0943 9.33084 12.0097 9.33084 11.9054V11.5846C9.33084 11.4804 9.41539 11.3958 9.5197 11.3958C9.62387 11.3958 9.70856 11.4803 9.70856 11.5846V11.9054C9.70856 12.0096 9.62388 12.0943 9.5197 12.0943Z" fill="#103E13"/>
<path id="Vector_14" d="M8.72566 12.0943C8.62149 12.0943 8.5368 12.0097 8.5368 11.9054V11.5846C8.5368 11.4804 8.62136 11.3958 8.72566 11.3958C8.82984 11.3958 8.91452 11.4803 8.91452 11.5846V11.9054C8.91439 12.0096 8.82997 12.0943 8.72566 12.0943Z" fill="#103E13"/>
<path id="Vector_15" d="M7.93172 12.0943C7.82755 12.0943 7.74286 12.0097 7.74286 11.9054L7.74299 11.5846C7.74299 11.4804 7.82754 11.3958 7.93185 11.3958C8.03602 11.3958 8.12071 11.4803 8.12071 11.5846V11.9054C8.12058 12.0096 8.03603 12.0943 7.93172 12.0943Z" fill="#103E13"/>
<path id="Vector_16" d="M2.53657 13.4004C2.53657 13.5046 2.62112 13.5892 2.72543 13.5892H14.2264C14.3306 13.5892 14.4152 13.5047 14.4152 13.4004C14.4152 13.2962 14.3307 13.2115 14.2264 13.2115H13.8773V7.7891C13.8773 7.68493 13.7927 7.60024 13.6884 7.60024L10.6049 7.60037V3.69109C10.6049 3.62497 10.5704 3.56387 10.514 3.52962C10.4578 3.49525 10.3875 3.49314 10.329 3.52356L6.82327 5.34881C6.76072 5.38134 6.72173 5.44587 6.72173 5.51633V8.93101H3.32897C3.22479 8.93101 3.14011 9.01556 3.14011 9.11987V13.2116H2.725C2.62083 13.2114 2.53641 13.296 2.53641 13.4003L2.53657 13.4004ZM10.605 10.4607H13.4997V13.2117L10.605 13.2115V10.4607ZM10.605 9.14832H13.4997V10.0831L10.605 10.083V9.14832ZM10.605 7.97789H13.4997V8.77087H10.605V7.97789ZM7.09925 5.63101L10.2271 4.00239V13.2114H7.09925V5.63101ZM4.45142 11.7031C4.45142 11.3112 4.76197 10.9922 5.14377 10.9922C5.52556 10.9922 5.83625 11.311 5.83625 11.7031V13.2116H4.45142V11.7031ZM3.51782 9.30867H6.72168V13.2115H6.21396V11.7031C6.21396 11.1029 5.73405 10.6146 5.14377 10.6146C4.55375 10.6146 4.07385 11.1028 4.07385 11.7031V13.2115H3.51782V9.30867Z" fill="#103E13"/>
</g>
</g>
</svg>
