<svg width="38" height="7" viewBox="0 0 38 7" fill="none" xmlns="http://www.w3.org/2000/svg">
<g id="Nexcent">
<path d="M6.11968 0.0666504V6.86539H4.87812L1.92027 2.5863H1.87047V6.86539H0.433044V0.0666504H1.69453L4.62914 4.34242H4.68889V0.0666504H6.11968Z" fill="#263238"/>
<path d="M9.60453 6.96498C9.08002 6.96498 8.62854 6.85875 8.2501 6.64629C7.87387 6.43161 7.58395 6.12842 7.38034 5.73669C7.17673 5.34275 7.07493 4.87689 7.07493 4.3391C7.07493 3.81459 7.17673 3.35426 7.38034 2.95811C7.58395 2.56196 7.87055 2.25322 8.24014 2.03191C8.61194 1.8106 9.04793 1.69994 9.5481 1.69994C9.8845 1.69994 10.1977 1.75416 10.4876 1.86261C10.7797 1.96884 11.0342 2.12929 11.2511 2.34396C11.4702 2.55864 11.6406 2.82864 11.7623 3.15397C11.8841 3.47708 11.9449 3.85553 11.9449 4.2893V4.67771H7.63927V3.80131H10.6137C10.6137 3.5977 10.5695 3.41733 10.4809 3.2602C10.3924 3.10307 10.2696 2.98024 10.1124 2.89171C9.95753 2.80097 9.77716 2.7556 9.57134 2.7556C9.35666 2.7556 9.16633 2.8054 9.00035 2.90499C8.83658 3.00237 8.70822 3.13405 8.61526 3.30003C8.52231 3.46381 8.47473 3.64639 8.47252 3.84778V4.68103C8.47252 4.93332 8.51899 5.15132 8.61194 5.33501C8.70711 5.5187 8.841 5.66034 9.01363 5.75993C9.18625 5.85952 9.39097 5.90931 9.62777 5.90931C9.7849 5.90931 9.92876 5.88718 10.0593 5.84292C10.1899 5.79866 10.3017 5.73226 10.3946 5.64374C10.4876 5.55521 10.5584 5.44677 10.6071 5.31841L11.915 5.40472C11.8486 5.71899 11.7125 5.99341 11.5067 6.22801C11.3031 6.46039 11.0397 6.64186 10.7166 6.77244C10.3957 6.9008 10.025 6.96498 9.60453 6.96498Z" fill="#263238"/>
<path d="M13.9583 1.76633L14.8945 3.54901L15.8539 1.76633H17.3046L15.8273 4.31586L17.3444 6.86539H15.9003L14.8945 5.10263L13.9052 6.86539H12.4445L13.9583 4.31586L12.4976 1.76633H13.9583Z" fill="#263238"/>
<path d="M20.2657 6.96498C19.7434 6.96498 19.2942 6.85432 18.9179 6.63301C18.5439 6.40948 18.2562 6.09964 18.0548 5.70349C17.8556 5.30734 17.756 4.85144 17.756 4.33578C17.756 3.81348 17.8567 3.35536 18.0581 2.96143C18.2617 2.56527 18.5506 2.25654 18.9246 2.03523C19.2986 1.8117 19.7434 1.69994 20.2591 1.69994C20.7039 1.69994 21.0934 1.78072 21.4276 1.94228C21.7618 2.10384 22.0263 2.33068 22.221 2.62282C22.4158 2.91495 22.5231 3.25798 22.543 3.65192H21.2085C21.1709 3.39741 21.0713 3.1927 20.9098 3.03778C20.7504 2.88065 20.5413 2.80208 20.2823 2.80208C20.0632 2.80208 19.8718 2.86183 19.708 2.98134C19.5465 3.09864 19.4203 3.27016 19.3296 3.4959C19.2388 3.72164 19.1935 3.99496 19.1935 4.31586C19.1935 4.64119 19.2377 4.91783 19.3263 5.14579C19.417 5.37374 19.5443 5.54747 19.708 5.66698C19.8718 5.78649 20.0632 5.84624 20.2823 5.84624C20.4439 5.84624 20.5889 5.81304 20.7172 5.74665C20.8478 5.68026 20.9551 5.58398 21.0392 5.45784C21.1255 5.32947 21.182 5.17566 21.2085 4.9964H22.543C22.5209 5.38591 22.4147 5.72894 22.2244 6.0255C22.0362 6.31985 21.7762 6.55002 21.4442 6.716C21.1123 6.88199 20.7194 6.96498 20.2657 6.96498Z" fill="#263238"/>
<path d="M25.7723 6.96498C25.2478 6.96498 24.7963 6.85875 24.4178 6.64629C24.0416 6.43161 23.7517 6.12842 23.5481 5.73669C23.3445 5.34275 23.2427 4.87689 23.2427 4.3391C23.2427 3.81459 23.3445 3.35426 23.5481 2.95811C23.7517 2.56196 24.0383 2.25322 24.4079 2.03191C24.7797 1.8106 25.2157 1.69994 25.7158 1.69994C26.0522 1.69994 26.3654 1.75416 26.6553 1.86261C26.9475 1.96884 27.202 2.12929 27.4189 2.34396C27.638 2.55864 27.8084 2.82864 27.9301 3.15397C28.0518 3.47708 28.1127 3.85553 28.1127 4.2893V4.67771H23.807V3.80131H26.7815C26.7815 3.5977 26.7372 3.41733 26.6487 3.2602C26.5602 3.10307 26.4373 2.98024 26.2802 2.89171C26.1253 2.80097 25.9449 2.7556 25.7391 2.7556C25.5244 2.7556 25.3341 2.8054 25.1681 2.90499C25.0043 3.00237 24.876 3.13405 24.783 3.30003C24.6901 3.46381 24.6425 3.64639 24.6403 3.84778V4.68103C24.6403 4.93332 24.6867 5.15132 24.7797 5.33501C24.8749 5.5187 25.0088 5.66034 25.1814 5.75993C25.354 5.85952 25.5587 5.90931 25.7955 5.90931C25.9527 5.90931 26.0965 5.88718 26.2271 5.84292C26.3577 5.79866 26.4694 5.73226 26.5624 5.64374C26.6553 5.55521 26.7261 5.44677 26.7748 5.31841L28.0828 5.40472C28.0164 5.71899 27.8803 5.99341 27.6745 6.22801C27.4709 6.46039 27.2075 6.64186 26.8844 6.77244C26.5635 6.9008 26.1928 6.96498 25.7723 6.96498Z" fill="#263238"/>
<path d="M30.4497 3.9175V6.86539H29.0355V1.76633H30.3833V2.66597H30.4431C30.556 2.36941 30.7452 2.13482 31.0108 1.9622C31.2763 1.78736 31.5983 1.69994 31.9768 1.69994C32.3309 1.69994 32.6396 1.7774 32.903 1.93232C33.1663 2.08724 33.3711 2.30855 33.5171 2.59626C33.6632 2.88175 33.7362 3.22257 33.7362 3.61872V6.86539H32.322V3.87102C32.3243 3.55897 32.2446 3.31553 32.083 3.14069C31.9215 2.96364 31.699 2.87511 31.4158 2.87511C31.2254 2.87511 31.0572 2.91606 30.9112 2.99794C30.7673 3.07983 30.6544 3.19934 30.5726 3.35647C30.4929 3.51139 30.4519 3.6984 30.4497 3.9175Z" fill="#263238"/>
<path d="M37.563 1.76633V2.82864H34.4923V1.76633H37.563ZM35.1894 0.544687H36.6036V5.29849C36.6036 5.42907 36.6235 5.53087 36.6634 5.6039C36.7032 5.67472 36.7585 5.72452 36.8294 5.75329C36.9024 5.78206 36.9865 5.79645 37.0817 5.79645C37.148 5.79645 37.2144 5.79091 37.2808 5.77985C37.3472 5.76657 37.3981 5.75661 37.4335 5.74997L37.656 6.80231C37.5851 6.82444 37.4855 6.84989 37.3572 6.87867C37.2288 6.90965 37.0728 6.92846 36.8891 6.9351C36.5483 6.94838 36.2495 6.90301 35.9928 6.79899C35.7383 6.69498 35.5402 6.53342 35.3986 6.31432C35.2569 6.09522 35.1872 5.81858 35.1894 5.48439V0.544687Z" fill="#263238"/>
</g>
</svg>
