<svg width="17" height="17" viewBox="0 0 17 17" fill="none" xmlns="http://www.w3.org/2000/svg">
<g id="Icon">
<path id="Vector" d="M2.72511 5.89359V6.06053H2.89204H14.9112H15.0782V5.89359V5.14239C15.0782 4.76607 14.9287 4.40516 14.6626 4.13906C14.3965 3.87295 14.0356 3.72346 13.6592 3.72346H4.14404C3.76772 3.72346 3.40681 3.87295 3.1407 4.13906C2.8746 4.40516 2.72511 4.76607 2.72511 5.14239V5.89359ZM15.0782 6.89519V6.72826H14.9112H2.89204H2.72511V6.89519V11.6528C2.72511 12.0291 2.8746 12.39 3.1407 12.6561C3.40681 12.9222 3.76772 13.0717 4.14404 13.0717H13.6592C14.0356 13.0717 14.3965 12.9222 14.6626 12.6561C14.9287 12.39 15.0782 12.0291 15.0782 11.6528V6.89519ZM2.05738 5.14239C2.05738 4.58898 2.27722 4.05822 2.66855 3.6669C3.05987 3.27557 3.59062 3.05573 4.14404 3.05573H13.6592C14.2127 3.05573 14.7434 3.27557 15.1347 3.6669C15.5261 4.05822 15.7459 4.58898 15.7459 5.14239V11.6528C15.7459 12.2062 15.5261 12.737 15.1347 13.1283C14.7434 13.5196 14.2127 13.7395 13.6592 13.7395H4.14404C3.59062 13.7395 3.05987 13.5196 2.66855 13.1283C2.27722 12.737 2.05738 12.2062 2.05738 11.6528V5.14239ZM11.4056 10.0669H12.908C12.9966 10.0669 13.0815 10.1021 13.1441 10.1647C13.2067 10.2273 13.2419 10.3122 13.2419 10.4008C13.2419 10.4893 13.2067 10.5743 13.1441 10.6369C13.0815 10.6995 12.9966 10.7347 12.908 10.7347H11.4056C11.3171 10.7347 11.2322 10.6995 11.1696 10.6369C11.1069 10.5743 11.0718 10.4893 11.0718 10.4008C11.0718 10.3122 11.1069 10.2273 11.1696 10.1647C11.2322 10.1021 11.3171 10.0669 11.4056 10.0669Z" fill="#4CAF4F" stroke="#4CAF4F" stroke-width="0.333867"/>
</g>
</svg>
